SplineFontDB: 3.0
FontName: DorianCLM-Book
FullName: Dorian CLM Book
FamilyName: Dorian CLM
Weight: Book
Copyright: Copyright (c) 2003-2011 by Maxim Iorsh (maxim.iorsh@gmail.com). Distributed under the terms of GNU General Public License version 2(http://www.gnu.org/licenses/gpl-2.0.html). \nAll rights reserved.
UComments: "2003-9-18: Created.+AAoA-Digits avg width: 697.5+AAoA-Digits avg left margin: 51+AAoA-Digits avg right margin:59+AAoACgAA-Letters avg width: 701+AAoA-Letters avg left margin: 49+AAoA-Letters avg right margin: 55" 
Version: 2.1
ItalicAngle: 0
UnderlinePosition: -100
UnderlineWidth: 50
Ascent: 800
Descent: 200
LayerCount: 2
Layer: 0 0 "Back"  1
Layer: 1 0 "Fore"  0
NeedsXUIDChange: 1
FSType: 0
OS2Version: 0
OS2_WeightWidthSlopeOnly: 0
OS2_UseTypoMetrics: 1
CreationTime: 1163025789
ModificationTime: 1313530220
PfmFamily: 65
TTFWeight: 400
TTFWidth: 5
LineGap: 90
VLineGap: 0
Panose: 0 0 0 0 0 0 0 0 0 0
OS2TypoAscent: 0
OS2TypoAOffset: 1
OS2TypoDescent: 0
OS2TypoDOffset: 1
OS2TypoLinegap: 0
OS2WinAscent: 900
OS2WinAOffset: 0
OS2WinDescent: 500
OS2WinDOffset: 0
HheadAscent: 0
HheadAOffset: 1
HheadDescent: 0
HheadDOffset: 1
OS2Vendor: 'PfEd'
Lookup: 6 1 0 "ccmpAltAyin"  {"ccmpAltAyin subtable"  } ['ccmp' ('hebr' <'dflt' > ) ]
Lookup: 1 1 0 "Single Substitution lookup 1"  {"Single Substitution lookup 1 subtable"  } []
Lookup: 6 1 0 "ccmpVavHolam"  {"ccmpVavHolam subtable"  } ['ccmp' ('hebr' <'dflt' > ) ]
Lookup: 1 1 0 "salt MiscSAlt"  {"MiscSAlt"  } ['salt' ('hebr' <'dflt' > ) ]
Lookup: 4 1 0 "ccmp AlephLamed2"  {"AlephLamed2"  } ['ccmp' ('hebr' <'JUD ' > ) ]
Lookup: 4 1 0 "dlig AlephLamed"  {"AlephLamed"  } ['dlig' ('hebr' <'dflt' > ) ]
Lookup: 4 1 0 "ccmp CustomPrecomp"  {"CustomPrecomp"  } ['ccmp' ('hebr' <'dflt' > ) ]
Lookup: 1 1 0 "jalt WideLetters"  {"WideLetters"  } ['jalt' ('hebr' <'dflt' > ) ]
Lookup: 1 1 0 "ccmp Yiddish2"  {"Yiddish2"  } ['ccmp' ('hebr' <'JII ' > ) ]

StartChar: .notdef
Encoding: 0 -1 0
AltUni2: 000000.ffffffff.0 000000.ffffffff.0 000000.ffffffff.0 000000.ffffffff.0 000000.ffffffff.0 000000.ffffffff.0 000000.ffffffff.0 000000.ffffffff.0 000000.ffffffff.0 000000.ffffffff.0 000000.ffffffff.0 000000.ffffffff.0 000000.ffffffff.0 000000.ffffffff.0
Width: 890
Flags: HMW
LayerCount: 2
Fore
SplineSet
145 650 m 1
 145 -50 l 1
 745 -50 l 1
 745 650 l 1
 145 650 l 1
95 700 m 1
 795 700 l 1
 795 -100 l 1
 95 -100 l 1
 95 700 l 1
EndSplineSet
EndChar

StartChar: exclam
Encoding: 33 33 1
Width: 381
Flags: HMW
LayerCount: 2
Fore
SplineSet
147.147 689.289 m 1
 217.858 760 l 1
 232 745.857 l 1
 232 310.711 l 5
 161.29 240 l 5
 147.147 254.143 l 5
 147.147 689.289 l 1
190.711 -43.2715 m 1
 105.15 42.2891 l 1
 190.711 127.85 l 1
 276.271 42.2891 l 1
 190.711 -43.2715 l 1
EndSplineSet
EndChar

StartChar: quotedbl
Encoding: 34 34 2
Width: 399
Flags: HMW
LayerCount: 2
Back
SplineSet
287.501 760.997 m 5
 312.627 724.222 327.521 678.51 327.521 628.997 c 4
 327.521 576 311 530 283 491 c 5
87.501 760.997 m 5
 112.627 724.222 127.521 678.51 127.521 628.997 c 4
 127.521 576 111 530 83 491 c 5
EndSplineSet
Fore
SplineSet
315.785 803.424 m 1
 329.928 789.281 l 1
 355.056 752.508 369.945 706.793 369.947 657.281 c 0
 369.949 604.286 353.426 558.283 325.427 519.284 c 1
 254.716 448.573 l 1
 240.574 462.716 l 1
 268.572 501.715 285.096 547.718 285.095 600.713 c 0
 285.093 650.225 270.203 695.939 245.075 732.713 c 1
 315.785 803.424 l 1
115.785 803.423 m 1
 129.928 789.281 l 1
 155.056 752.508 169.945 706.792 169.946 657.281 c 0
 169.948 604.285 153.426 558.283 125.426 519.284 c 1
 54.7158 448.573 l 1
 40.5732 462.716 l 1
 68.5723 501.715 85.0957 547.717 85.0938 600.713 c 0
 85.0928 650.224 70.2021 695.939 45.0742 732.713 c 1
 115.785 803.423 l 1
EndSplineSet
EndChar

StartChar: percent
Encoding: 37 37 3
Width: 846
Flags: HMW
LayerCount: 2
Back
SplineSet
149 -5 m 1
 738 605 l 1
532.75 221.233 m 0
 557.239 244.636 591.28 259.15 628.9 259.15 c 0
 703.42 259.15 763.9 202.198 763.9 132.025 c 0
 763.9 98.9307 750.448 68.7764 728.415 46.1504 c 0
733.601 33.3486 m 0
 709.079 9.69336 674.851 -5 637 -5 c 0
 562.48 -5 502 51.9521 502 122.125 c 0
 502 155.7 515.846 186.249 538.45 208.981 c 0
159.65 567.212 m 0
 184.14 590.614 218.181 605.129 255.801 605.129 c 0
 330.32 605.129 390.801 548.177 390.801 478.004 c 0
 390.801 444.909 377.349 414.755 355.315 392.129 c 0
360.501 379.327 m 0
 335.979 355.672 301.751 340.979 263.9 340.979 c 0
 189.381 340.979 128.9 397.931 128.9 468.104 c 0
 128.9 501.679 142.746 532.228 165.351 554.96 c 0
EndSplineSet
Fore
SplineSet
112.025 5.95508 m 1
 121.025 21.5439 l 1
 710.022 631.545 l 1
 774.975 594.045 l 1
 765.975 578.457 l 1
 176.977 -31.5449 l 1
 112.025 5.95508 l 1
390.199 399.126 m 1
 340.702 349.629 l 2
 316.182 325.975 281.951 311.279 244.102 311.28 c 0
 205.334 311.281 170.361 326.693 145.733 351.367 c 2
 135.834 361.267 l 2
 113.123 384.019 99.2031 414.641 99.2021 448.305 c 0
 99.2012 481.879 113.049 512.43 135.652 535.161 c 2
 138.928 538.438 l 1
 129.952 547.413 l 1
 179.449 596.91 l 2
 203.938 620.312 237.98 634.828 275.6 634.827 c 0
 314.367 634.826 349.34 619.414 373.968 594.74 c 2
 383.867 584.841 l 2
 406.578 562.089 420.498 531.467 420.499 497.803 c 0
 420.5 464.709 407.047 434.553 385.014 411.928 c 2
 381.205 408.119 l 1
 390.199 399.126 l 1
763.299 53.1475 m 1
 713.802 3.65039 l 2
 689.278 -20.0059 655.053 -34.6973 617.201 -34.6992 c 0
 578.51 -34.7002 543.605 -19.3467 518.984 5.2373 c 2
 509.077 15.1367 l 1
 508.782 15.4404 l 2
 486.158 38.1738 472.303 68.7363 472.302 102.326 c 0
 472.3 135.9 486.147 166.45 508.752 189.183 c 2
 512.027 192.459 l 1
 503.052 201.435 l 1
 552.549 250.932 l 2
 577.037 274.333 611.08 288.85 648.699 288.849 c 0
 687.468 288.848 722.439 273.436 747.067 248.762 c 2
 756.967 238.862 l 2
 779.678 216.11 793.6 185.49 793.599 151.824 c 0
 793.598 118.729 780.147 88.5752 758.113 65.9492 c 0
 756.844 64.6797 755.574 63.4102 754.305 62.1406 c 1
 763.299 53.1475 l 1
188.084 567.18 m 1
 169.634 545.438 158.599 517.876 158.6 487.902 c 0
 158.601 456.658 170.636 427.959 190.501 405.857 c 1
 214.702 384.151 247.588 370.679 283.699 370.678 c 0
 300.57 370.678 316.724 373.597 331.617 378.928 c 1
 350.067 400.669 361.104 428.232 361.103 458.205 c 0
 361.102 489.449 349.069 518.152 329.2 540.25 c 1
 305 561.956 272.113 575.429 236.002 575.431 c 0
 219.13 575.431 202.978 572.512 188.084 567.18 c 1
561.184 221.201 m 1
 542.733 199.459 531.697 171.896 531.698 141.924 c 0
 531.699 110.679 543.734 81.9795 563.601 59.8789 c 1
 587.801 38.1729 620.685 24.6973 656.799 24.6982 c 0
 673.672 24.6982 689.823 27.6182 704.717 32.9492 c 1
 723.167 54.6895 734.203 82.2539 734.202 112.227 c 0
 734.201 143.471 722.169 172.174 702.3 194.271 c 1
 678.1 215.979 645.213 229.451 609.102 229.452 c 0
 592.229 229.452 576.077 226.533 561.184 221.201 c 1
EndSplineSet
Comment: "slash: callig 18 75 60+AAoA-circles: callig 70 14 45" 
EndChar

StartChar: parenleft
Encoding: 40 40 4
Width: 313
Flags: HMW
LayerCount: 2
Back
SplineSet
212.716 -112.427 m 1
 198.573 -98.2842 l 1
 68.5752 133.719 68.5771 394.717 198.573 641.716 c 1
 269.284 712.426 l 1
 283.426 698.284 l 1
 153.432 451.288 153.422 190.28 283.426 -41.7158 c 1
 212.716 -112.427 l 1
241 -70 m 5
 111 162 111 423 241 670 c 5
EndSplineSet
Fore
SplineSet
207.716 -107.427 m 1
 193.573 -93.2842 l 1
 63.5752 138.719 63.5771 399.717 193.573 646.716 c 1
 264.284 717.426 l 5
 283.426 698.284 l 1
 153.432 451.288 148.422 195.28 278.426 -36.7158 c 1
 207.716 -107.427 l 1
EndSplineSet
EndChar

StartChar: parenright
Encoding: 41 41 5
Width: 313
Flags: HMW
LayerCount: 2
Back
SplineSet
82 670 m 1
 212 438 212 177 82 -70 c 1
EndSplineSet
Fore
SplineSet
105.284 707.426 m 1
 119.427 693.284 l 1
 249.418 461.273 249.428 200.288 119.427 -46.7158 c 1
 48.7158 -117.427 l 1
 29.5732 -98.2842 l 1
 159.574 148.717 164.57 404.712 34.5732 636.716 c 1
 105.284 707.426 l 1
EndSplineSet
EndChar

StartChar: asterisk
Encoding: 42 42 6
Width: 748
Flags: HMW
LayerCount: 2
Back
SplineSet
153 120 m 21
 300 340 l 5
 447 120 l 13
60 412 m 21
 300 340 l 5
 540 412 l 13
300 580 m 29
 300 340 l 29
EndSplineSet
Fore
SplineSet
428.375 380.315 m 1
 656.906 448.875 l 1
 668.375 432.484 l 1
 586.469 375.125 l 1
 446.625 333.172 l 1
 575.375 140.484 l 1
 493.469 83.125 l 1
 482 99.5156 l 1
 368 270.125 l 1
 281.375 140.484 l 1
 199.469 83.125 l 1
 188 99.5156 l 1
 327.792 308.729 l 1
 106.469 375.125 l 1
 95 391.516 l 1
 176.906 448.875 l 1
 335 401.447 l 1
 335 559.516 l 1
 416.906 616.875 l 1
 428.375 600.484 l 1
 428.375 380.315 l 1
EndSplineSet
EndChar

StartChar: plus
Encoding: 43 43 7
Width: 848
Flags: HMW
LayerCount: 2
Back
SplineSet
350 550 m 29
 350 50 l 29
600 300 m 29
 100 300 l 29
EndSplineSet
Fore
SplineSet
377 342.422 m 1
 377 521.719 l 1
 447.703 592.422 l 1
 461.844 578.281 l 1
 461.844 342.422 l 1
 729.703 342.422 l 1
 743.844 328.281 l 1
 673.141 257.578 l 1
 461.844 257.578 l 1
 461.844 78.2812 l 1
 391.141 7.57812 l 1
 377 21.7188 l 1
 377 257.578 l 1
 109.141 257.578 l 1
 95 271.719 l 1
 165.703 342.422 l 1
 377 342.422 l 1
EndSplineSet
Substitution2: "MiscSAlt" uniFB29
EndChar

StartChar: two
Encoding: 50 50 8
Width: 699
Flags: HMW
LayerCount: 2
Back
SplineSet
363.002 642.427 m 0
 445.859 642.427 529.081 614.182 579.9 563.362 c 2
 594.042 549.221 l 2
 624.602 518.66 639.413 476.653 639.413 431 c 0
 639.413 363.031 618.638 306.225 573.413 261 c 2
 502.702 190.289 l 17
 439.413 145 387.413 118 241.641 62.4268 c 1
 622.754 62.4268 l 1
 636.896 48.2842 l 1
 566.186 -22.4268 l 1
 64.1426 -22.4268 l 1
 50 -8.28418 l 1
 120.711 62.4268 l 1
 406.413 177 448.413 198 519.527 245.122 c 1
 543.413 291 558.592 327 558.592 377.716 c 0
 558.592 420.033 539.628 462.213 516.261 485.581 c 0
 462.842 539 391 557.573 306.434 557.573 c 8
 247.187 557.573 202 548 158.807 521.731 c 1
 138 492 123.442 464.226 140.84 429.284 c 1
 70.1289 358.573 l 1
 55.9863 372.716 l 1
 55.9863 425.055 76.8428 468.052 109.31 500.519 c 2
 180.02 571.229 l 2
 226.334 617.543 296.273 642.427 363.002 642.427 c 0
594.557 20 m 21
 92.5137 20 l 5
 243.126 92 601.105 168 601.105 406 c 12
 601.105 527.572 467.488 600 334.805 600 c 20
 221.299 600 98.5 528 98.5 401 c 12
EndSplineSet
Fore
SplineSet
140.84 429.284 m 1
 70.1289 358.572 l 1
 55.9863 372.716 l 1
 55.9863 425.055 76.8428 468.052 109.31 500.519 c 2
 180.02 571.229 l 2
 226.334 617.543 296.273 642.427 363.002 642.427 c 0
 451.487 642.427 535.051 612.233 586 557.262 c 0
 621 519.5 639.413 473 639.413 417.088 c 0
 639.413 335.088 603.1 270.088 540.1 218.088 c 0
 454.623 147.536 338.1 111.088 211.641 62.4268 c 1
 622.754 62.4268 l 1
 636.896 48.2842 l 1
 566.186 -22.4268 l 1
 64.1426 -22.4268 l 1
 50 -8.28418 l 1
 120.711 62.4268 l 1
 278.1 123.088 442.101 191.088 502.1 252.088 c 0
 536.403 286.963 558.592 327 558.592 377.716 c 0
 558.592 420.033 539.628 462.213 516.261 485.581 c 0
 462.842 539 391 557.573 306.434 557.574 c 0
 257.133 557.567 205.976 543.858 164.223 518.295 c 1
 149.383 492.544 140.839 462.901 140.84 429.284 c 1
EndSplineSet
EndChar

StartChar: three
Encoding: 51 51 9
Width: 731
Flags: HMW
LayerCount: 2
Back
SplineSet
39.9502 79.6377 m 1
 110.661 150.349 l 1
 170.174 90.9805 253.345 54.7881 357.344 54.7852 c 0
 421.765 54.7832 486.469 74.3252 536.447 107.352 c 1
 554.137 135.75 564.075 167.323 564.074 202.073 c 0
 564.073 239.747 547.708 272.603 523.876 298.864 c 1
 523.167 299.51 522.666 299.961 522.034 300.524 c 0
 485.332 333.244 432.65 358.576 380.622 369.482 c 1
 366.479 383.625 l 1
 437.19 454.336 l 1
 528.048 537.573 l 1
 74.0996 537.574 l 1
 59.958 551.716 l 1
 130.668 622.427 l 1
 620.668 622.426 l 1
 634.81 608.284 l 1
 564.1 537.573 l 1
 465.308 447.066 l 1
 507.452 434.108 548.544 412.174 578.603 385.378 c 0
 581.659 382.652 584.636 379.854 587.519 376.98 c 0
 587.66 376.839 l 0
 587.911 376.587 587.387 377.112 587.827 376.672 c 0
 601.969 362.529 l 0
 629.812 334.67 648.926 299.859 648.927 258.642 c 0
 648.929 207.196 626.934 162.209 591.217 126.262 c 1
 590.736 125.78 l 0
 520.025 55.0693 l 0
 519.489 54.5342 518.95 54.002 518.409 53.4707 c 0
 465.07 1.21094 382.92 -30.0674 300.775 -30.0684 c 0
 196.773 -30.0693 113.603 6.12598 54.0928 65.4951 c 0
 39.9502 79.6377 l 1
82.377 107.922 m 0
 141.888 48.5527 225.058 12.3574 329.06 12.3584 c 0
 411.206 12.3594 493.354 43.6377 546.693 95.8975 c 0
 583.429 131.889 606.502 177.831 606.5 230.357 c 0
 606.499 275.986 583.072 313.759 550.318 342.951 c 0
 513.612 375.667 460.933 401 408.906 411.909 c 1
 592.384 580 l 1
 102.384 580 l 1
EndSplineSet
Fore
SplineSet
493.449 442.104 m 5
 533.439 428.955 575.289 409.579 605.5 386 c 4
 646.5 354 670.925 310.359 670.927 255.642 c 4
 670.929 204.196 648.934 159.209 613.217 123.262 c 5
 612.736 122.78 l 4
 545.025 55.0693 l 0
 544.489 54.5342 543.95 54.002 543.409 53.4707 c 0
 490.07 1.21094 407.92 -30.0674 325.775 -30.0684 c 0
 221.773 -30.0693 138.603 6.12598 79.0928 65.4951 c 0
 64.9502 79.6377 l 1
 135.661 150.349 l 1
 195.174 90.9805 278.345 54.7881 382.344 54.7852 c 0
 446.765 54.7832 511.469 74.3252 561.447 107.352 c 1
 579.137 135.75 589.074 167.323 589.074 202.073 c 0
 589.074 245 575.5 277 549 303.5 c 0
 514.232 338.268 457.65 358.576 405.622 369.482 c 1
 391.479 383.625 l 1
 545.673 537.573 l 1
 99.0996 537.574 l 1
 84.958 551.716 l 1
 155.668 622.427 l 1
 645.668 622.426 l 1
 659.81 608.284 l 1
 493.449 442.104 l 5
EndSplineSet
EndChar

StartChar: four
Encoding: 52 52 10
Width: 667
Flags: HMW
LayerCount: 2
Back
SplineSet
593.284 442.427 m 1
 607.427 428.284 l 1
 607.427 28.2842 l 1
 536.716 -42.4258 l 1
 522.574 -28.2842 l 1
 522.574 371.716 l 1
 593.284 442.427 l 1
392.584 642.427 m 1
 406.727 628.284 l 1
 364.889 509.442 295.028 405.092 207.121 317.221 c 0
 136.41 246.51 l 0
 135.188 245.289 132.71 242.831 132.3 242.426 c 1
 514.284 242.427 l 1
 528.427 228.284 l 1
 457.716 157.573 l 1
 34.2158 157.573 l 1
 20.0732 171.716 l 1
 90.7842 242.426 l 1
 113.521 259.687 135.398 277.749 156.604 296.852 c 1
 227.975 376.314 285.573 468.604 321.874 571.716 c 1
 392.584 642.427 l 1
565 400 m 25
 565 0 l 25
364.3 600 m 17
 307.3 438.094 198.3 303.094 62.5 200 c 1
 486 200 l 9
EndSplineSet
Fore
SplineSet
407.584 652.427 m 5
 421.727 638.284 l 5
 401.3 488.089 247.511 351.94 137.3 242.426 c 1
 509.284 242.426 l 1
 517.574 234.137 l 1
 517.574 371.716 l 1
 588.284 442.427 l 1
 602.427 428.284 l 1
 602.427 28.2842 l 1
 531.716 -42.4258 l 1
 517.574 -28.2842 l 1
 517.574 222.431 l 1
 452.716 157.573 l 1
 29.2158 157.573 l 1
 15.0732 171.716 l 1
 85.7842 242.426 l 1
 163.447 320.089 253.458 418.397 296.874 541.716 c 5
 407.584 652.427 l 5
EndSplineSet
EndChar

StartChar: five
Encoding: 53 53 11
Width: 744
Flags: HMW
LayerCount: 2
Back
SplineSet
360.711 54.4268 m 0
 439.427 54.4268 478.427 63 531.427 86.7939 c 1
 546.427 125 550 149.997 550 193.716 c 0
 550 243 536.211 289 501.718 323.493 c 0
 461.211 364 401.427 385.573 320.143 385.573 c 0
 239.427 385.573 147.427 367 64.1426 305.573 c 1
 50 319.716 l 1
 50 481.716 l 1
 120.711 552.427 l 1
 190.711 622.427 l 1
 620.711 622.427 l 1
 634.853 608.284 l 1
 564.143 537.573 l 1
 134.853 538.284 l 1
 134.853 400.43 l 1
 210.672 450.473 278.18 470.523 376.711 470.427 c 0
 454.67 470.35 521.466 445.167 565.357 401.275 c 2
 579.499 387.133 l 2
 614.429 352.203 634.853 305.474 634.853 250.284 c 0
 634.853 192.779 616.427 146 586.138 104.711 c 9
 515.427 34 l 17
 471.427 -4 398.73 -30.4268 304.143 -30.4268 c 0
 202.742 -30.4268 128.143 9.57324 64.1426 69.5732 c 1
 50 83.7158 l 1
 120.711 154.427 l 1
 184.711 94.4268 263.427 54.4268 360.711 54.4268 c 0
592.5 580 m 25
 162.5 580 l 25
 92.5 510 l 25
 92.5 348 l 21
 174.5 406 243.898 428 348.5 428 c 20
 488.5 428 592.5 346.539 592.5 222 c 20
 592.5 96 506.5 12 332.5 12 c 8
 231.1 12 156.5 52 92.5 112 c 8
EndSplineSet
Fore
SplineSet
174.85 385 m 1
 253.569 443.001 323.053 467.426 423.471 467.427 c 4
 503.136 467.428 565.19 439.714 610 394.904 c 4
 647.3 357.604 671.858 309.581 671.854 247.284 c 4
 671.854 189.779 653.427 143 623.138 101.711 c 13
 555.427 34 l 17
 511.427 -4 438.73 -30.4268 344.143 -30.4268 c 0
 242.742 -30.4268 168.143 9.57324 104.143 69.5732 c 1
 90 83.7158 l 1
 160.711 154.427 l 1
 224.711 94.4268 303.427 54.4268 400.711 54.4268 c 0
 479.427 54.4268 518.427 63 571.427 86.7939 c 1
 586.427 125 590 149.997 590 193.716 c 0
 590 243 576.211 289 541.718 323.493 c 0
 501.211 364 441.427 385.572 360.143 385.572 c 0
 279.427 385.572 187.427 367 104.143 305.572 c 1
 90 319.716 l 1
 90 481.716 l 1
 160.711 552.427 l 1
 230.711 622.427 l 1
 660.711 622.427 l 1
 674.854 608.284 l 1
 604.143 537.573 l 1
 174.853 538.284 l 1
 174.85 385 l 1
EndSplineSet
EndChar

StartChar: six
Encoding: 54 54 12
Width: 721
Flags: HMW
LayerCount: 2
Back
SplineSet
158.773 339.716 m 1
 229.484 410.427 l 1
 277.783 432.427 321.886 442.428 384.884 442.427 c 0
 470.046 442.425 551.132 416.737 600.063 367.776 c 0
 614.205 353.634 l 0
 643.701 324.12 661.524 286.163 661.525 240.284 c 0
 661.527 191.257 642.31 148.44 609.004 115.143 c 0
 538.293 44.4316 l 0
 491.438 -2.41309 416.692 -30.4258 328.315 -30.4258 c 0
 252.843 -30.4268 184.574 -2.39355 136.348 45.8184 c 0
 122.205 59.9609 l 0
 121.759 60.4072 122.24 59.9248 122.24 59.9248 c 1
 121.906 60.2598 l 0
 77.7461 104.562 50.4697 165.827 49.9922 238.003 c 0
 49.3193 339.591 85.5234 418.156 140.837 473.468 c 0
 211.548 544.179 l 0
 276.915 609.543 368.978 642.43 458.384 642.427 c 0
 494.007 642.426 523.186 635.715 548.185 625.714 c 1
 562.326 611.572 l 1
 491.615 540.861 l 1
 466.616 550.862 437.438 557.572 401.815 557.574 c 0
 328.801 557.576 253.983 535.623 193.461 492.012 c 1
 156.972 440.884 134.313 374.857 134.845 294.572 c 0
 135.299 226.028 159.729 167.637 200.113 123.762 c 1
 247.462 80.1074 313.211 54.4287 384.884 54.4268 c 0
 450.829 54.4248 509.234 70.0488 554.016 97.3984 c 1
 568.543 122.829 576.674 152.027 576.673 183.716 c 0
 576.672 225.938 561.53 261.534 536.15 289.882 c 1
 486.937 334.079 409.277 357.571 328.315 357.574 c 0
 265.317 357.575 221.215 347.573 172.916 325.573 c 1
 158.773 339.716 l 1
201.2 368 m 16
 249.5 390 293.6 400 356.6 400 c 0
 493.1 400 619.1 333.992 619.1 212 c 16
 619.1 94 507.8 12 356.6 12 c 0
 211.743 12 93.4206 115.265 92.4189 266.288 c 0
 90.9489 487.93 265.037 600 430.1 600 c 4
 465.723 600 494.9 593.288 519.9 583.288 c 0
EndSplineSet
Fore
SplineSet
173.773 339.716 m 1
 241.484 407.427 l 5
 289.783 429.427 333.886 439.428 396.884 439.427 c 4
 488.756 439.425 568.315 410.523 620 358.839 c 4
 651.557 327.282 673.524 288.656 673.525 237.284 c 4
 673.527 188.257 654.31 145.44 621.004 112.143 c 4
 553.293 44.4316 l 0
 506.438 -2.41309 431.692 -30.4258 343.315 -30.4258 c 0
 267.843 -30.4268 199.574 -2.39355 151.348 45.8184 c 0
 137.205 59.9609 l 0
 136.759 60.4072 137.24 59.9248 137.24 59.9248 c 1
 136.906 60.2598 l 0
 92.7461 104.562 65.4697 165.827 64.9922 238.003 c 0
 64.3193 339.591 100.523 418.156 155.837 473.468 c 0
 226.548 544.179 l 0
 291.915 609.543 383.978 642.43 473.384 642.427 c 0
 509.007 642.426 538.186 635.715 563.185 625.714 c 1
 577.326 611.572 l 1
 506.615 540.861 l 1
 481.616 550.862 452.438 557.572 416.815 557.574 c 0
 343.801 557.576 268.983 535.623 208.461 492.012 c 1
 171.972 440.884 149.313 374.857 149.845 294.572 c 0
 150.299 226.028 174.729 167.637 215.113 123.762 c 1
 262.462 80.1074 328.211 54.4287 399.884 54.4268 c 0
 465.829 54.4248 524.234 70.0488 569.016 97.3984 c 1
 583.543 122.829 591.674 152.027 591.673 183.716 c 0
 591.672 225.938 578.532 260.5 550.15 288.882 c 0
 503.532 335.5 429 357.574 343.315 357.574 c 0
 280.317 357.574 236.215 347.572 187.916 325.572 c 1
 173.773 339.716 l 1
EndSplineSet
EndChar

StartChar: seven
Encoding: 55 55 13
Width: 594
Flags: HMW
LayerCount: 2
Back
SplineSet
30.0732 551.716 m 5
 100.784 622.426 l 5
 600.784 622.427 l 5
 614.927 608.284 l 5
 486.926 426.283 402.927 248.285 372.927 28.2842 c 5
 302.216 -42.4268 l 5
 288.072 -28.2842 l 5
 317.293 185.988 397.604 360.208 520.211 537.574 c 5
 44.2158 537.573 l 5
 30.0732 551.716 l 5
72.5 580 m 29
 572.5 580 l 21
 444.5 398 360.5 220 330.5 0 c 12
EndSplineSet
Fore
SplineSet
10.0732 551.716 m 1
 80.7842 622.426 l 1
 580.784 622.427 l 1
 594.927 608.284 l 1
 466.926 426.283 388.9 259 355.927 48.2842 c 1
 265.216 -42.4268 l 1
 251.072 -28.2842 l 1
 280.293 185.988 377.604 360.208 500.211 537.574 c 1
 24.2158 537.573 l 1
 10.0732 551.716 l 1
EndSplineSet
EndChar

StartChar: eight
Encoding: 56 56 14
Width: 742
Flags: HMW
LayerCount: 2
Back
SplineSet
158.281 371.22 m 0
 143.851 385.651 l 0
 127.877 401.649 117.99 422.755 117.989 449.805 c 0
 117.988 478.861 128.876 501.922 146.849 520.029 c 1
 217.806 590.986 l 0
 254.084 627.242 319.094 642.271 377.954 642.269 c 0
 434.427 642.267 500.725 626.685 538.563 589.122 c 1
 552.866 574.82 l 0
 553.342 574.344 552.812 574.874 552.812 574.874 c 1
 553.169 574.517 l 0
 570.713 556.843 581.8 533.92 581.801 505.422 c 0
 581.802 475.685 572.552 453.402 555.727 436.507 c 1
 510.291 391.071 l 1
 551.808 379.787 589.179 361.747 615.125 335.801 c 0
 629.268 321.658 l 0
 653.031 297.895 667.518 267.208 667.519 228.286 c 0
 667.521 183.021 650.055 146.347 621.362 117.413 c 1
 620.909 116.958 l 0
 550.198 46.248 l 0
 496.92 -6.97852 406.156 -31.8672 321.809 -30.4238 c 0
 237.654 -28.9883 149.146 -2.81055 95.9658 50.1836 c 0
 95.8242 50.3252 l 0
 95.7031 50.4463 95.9834 50.165 95.6738 50.4746 c 0
 81.5312 64.6172 l 0
 51.4639 94.708 32.7637 133.414 32.666 181.118 c 0
 32.5889 217.97 47.7051 248.688 71.0254 273.576 c 1
 141.736 344.286 l 1
 155.878 330.145 l 1
 132.559 305.256 117.441 274.538 117.519 237.687 c 0
 117.609 193.726 133.691 157.181 159.609 128.329 c 1
 213.308 79.8535 297.859 55.7988 378.377 54.4287 c 0
 443.597 53.3135 513.026 68.2656 565.017 99.0996 c 1
 576.408 120.558 582.667 144.488 582.666 171.718 c 0
 582.665 206.696 570.6 235.547 551.164 257.863 c 1
 522.825 282.682 483.663 299.436 440.908 309.456 c 0
 404.414 318.01 365.25 321.801 327.844 321.95 c 0
 266.062 322.198 195.598 334.154 158.281 371.22 c 0
484.239 397.184 m 1
 492.451 411.291 496.948 428.43 496.947 448.854 c 0
 496.947 473.799 488.533 494.33 474.613 511.035 c 1
 436.421 543.313 374.153 557.414 321.386 557.415 c 0
 282.633 557.417 240.986 550.83 207.086 536.105 c 1
 204.431 527.24 202.842 517.092 202.843 506.373 c 0
 202.843 483.024 209.801 464.771 222.22 449.418 c 1
 260.949 417.571 326.503 407.03 384.412 406.803 c 0
 417.317 406.669 451.613 403.719 484.239 397.184 c 1
113.452 301.86 m 5
 90.1318 276.972 75.0156 246.254 75.0928 209.402 c 4
 75.1914 161.699 93.8896 122.992 123.958 92.9014 c 4
 177.106 39.7119 265.784 13.4404 350.093 12.002 c 4
 434.44 10.5596 525.204 35.4482 578.482 88.6738 c 4
 607.251 117.414 625.094 154.42 625.093 200.002 c 4
 625.091 238.924 610.605 269.611 586.841 293.374 c 12
 558.239 321.973 515.798 340.961 469.192 351.883 c 4
 432.699 360.438 393.534 364.227 356.128 364.377 c 4
 294.346 364.623 223.881 376.58 186.565 413.646 c 4
 186.424 413.789 l 4
 186.303 413.908 186.586 413.625 186.276 413.936 c 4
 170.304 429.935 160.417 451.039 160.416 478.089 c 4
 160.415 507.146 171.303 530.207 189.274 548.313 c 5
 189.521 548.561 l 4
 225.799 584.815 290.811 599.844 349.67 599.842 c 4
 405.976 599.84 472.617 584.082 510.142 546.833 c 4
 510.282 546.691 l 4
 510.472 546.503 510.062 546.913 510.439 546.536 c 4
 528.156 528.819 539.373 505.8 539.374 477.138 c 4
 539.375 447.4 530.125 425.118 513.3 408.223 c 5
EndSplineSet
Fore
SplineSet
183.281 371.22 m 0
 168.851 385.651 l 0
 152.877 401.649 142.99 422.755 142.989 449.805 c 0
 142.988 478.861 153.876 501.922 171.849 520.029 c 1
 242.806 590.986 l 0
 279.084 627.242 344.094 642.271 402.954 642.269 c 0
 459.427 642.267 525.725 626.685 563.562 589.122 c 1
 577.866 574.82 l 0
 578.342 574.344 577.812 574.874 577.812 574.874 c 1
 578.169 574.517 l 0
 595.713 556.843 606.8 533.92 606.801 505.422 c 0
 606.802 475.685 597.552 453.402 580.727 436.507 c 1
 530.291 386.071 l 1
 571.808 374.787 609.179 356.747 635.125 330.801 c 0
 649.268 316.658 l 0
 673.031 292.895 687.518 262.208 687.519 223.286 c 0
 687.521 178.021 670.055 141.347 641.362 112.413 c 1
 640.909 111.958 l 0
 575.198 46.248 l 0
 521.92 -6.97852 431.156 -31.8672 346.809 -30.4238 c 0
 262.654 -28.9883 174.146 -2.81055 120.966 50.1836 c 0
 120.824 50.3252 l 0
 120.703 50.4463 120.983 50.165 120.674 50.4746 c 0
 106.531 64.6172 l 0
 76.4639 94.708 57.7637 133.414 57.666 181.118 c 0
 57.5889 217.97 72.7051 248.688 96.0254 273.576 c 1
 166.736 344.286 l 1
 180.878 330.145 l 1
 157.559 305.256 142.441 274.538 142.519 237.687 c 0
 142.609 193.726 158.691 157.181 184.609 128.329 c 1
 238.308 79.8535 322.859 55.7988 403.377 54.4287 c 0
 468.597 53.3135 538.026 68.2656 590.017 99.0996 c 1
 601.408 120.558 607.667 144.488 607.666 171.718 c 0
 607.665 206.696 595.6 235.547 576.164 257.863 c 1
 547.825 282.682 508.663 299.436 465.908 309.456 c 0
 429.414 318.01 390.25 321.801 352.844 321.95 c 0
 291.062 322.197 220.598 334.154 183.281 371.22 c 0
506 392 m 1
 517.667 409.333 521.948 428.43 521.947 448.854 c 0
 521.947 473.799 513.533 494.33 499.613 511.035 c 1
 461.421 543.312 399.153 557.414 346.386 557.415 c 0
 307.633 557.417 264 550.667 227.666 534.332 c 1
 225.011 525.467 222.842 512.092 222.843 501.373 c 0
 222.843 478.024 229.801 459.771 242.22 444.418 c 1
 280.949 412.571 346.503 402.03 404.412 401.803 c 0
 437.317 401.669 473.374 398.535 506 392 c 1
EndSplineSet
EndChar

StartChar: nine
Encoding: 57 57 15
Width: 711
Flags: HMW
LayerCount: 2
Back
SplineSet
510.2 244 m 16
 461.9 222 417.8 212 354.8 212 c 0
 218.3 212 92.2998 274.077 92.2998 400 c 16
 92.2998 518 203.6 600 354.8 600 c 0
 510.2 600 625.235 481.901 617.3 312 c 0
 608.8 130 470.3 12 320.8 12 c 0
 263.8 12 206.8 18 160.8 40 c 0
EndSplineSet
Fore
SplineSet
552.626 272.284 m 1
 481.916 201.573 l 1
 433.616 179.573 389.514 169.571 326.516 169.573 c 0
 241.184 169.576 159.953 193.835 111.045 242.788 c 0
 96.9023 256.931 l 0
 67.5771 286.283 49.875 324.516 49.873 371.716 c 0
 49.8721 420.743 69.0889 463.559 102.396 496.857 c 0
 173.106 567.568 l 0
 219.96 614.41 294.711 642.429 383.084 642.427 c 0
 457.476 642.424 522.621 615.361 569.45 568.504 c 0
 583.593 554.361 l 0
 634.584 503.339 663.863 428.85 659.727 340.284 c 0
 655.586 251.631 620.6 178.161 568.521 126.12 c 0
 497.811 55.4092 l 0
 442.975 0.613281 369.194 -30.4258 292.516 -30.4268 c 0
 235.516 -30.4268 178.516 -24.4268 132.516 -2.42578 c 1
 118.374 11.7158 l 1
 189.084 82.4268 l 1
 235.086 60.4277 292.086 54.4287 349.084 54.4268 c 0
 409.086 54.4248 467.087 73.291 516.193 108.038 c 1
 549.714 155.196 571.664 214.994 574.873 283.716 c 0
 578.824 368.301 552.543 439.636 505.618 490.625 c 1
 459.686 532.923 397.047 557.571 326.516 557.573 c 0
 260.57 557.575 202.166 541.951 157.384 514.602 c 1
 142.856 489.171 134.725 459.972 134.727 428.284 c 0
 134.728 384.828 149.732 348.977 174.998 320.652 c 1
 224.431 276.477 301.93 254.429 383.084 254.427 c 0
 446.083 254.425 490.186 264.428 538.484 286.427 c 1
 552.626 272.284 l 1
EndSplineSet
EndChar

StartChar: colon
Encoding: 58 58 16
Width: 341
Flags: HMW
LayerCount: 2
Fore
SplineSet
170.561 -43.2715 m 1
 85 42.2891 l 1
 170.561 127.85 l 1
 256.121 42.2891 l 1
 170.561 -43.2715 l 1
170.561 343.95 m 1
 85 429.511 l 1
 170.561 515.071 l 1
 256.121 429.511 l 1
 170.561 343.95 l 1
EndSplineSet
EndChar

StartChar: semicolon
Encoding: 59 59 17
Width: 341
Flags: HMW
LayerCount: 2
Fore
SplineSet
141.049 -90.7109 m 0
 141.049 -45.6992 126.153 -4.14453 101.027 29.2891 c 1
 176.738 105 l 1
 190.88 90.8574 l 1
 216.006 57.4238 230.9 15.8691 230.9 -29.1426 c 0
 230.9 -74.1543 214.36 -124 183.404 -158.289 c 1
 107.694 -234 l 1
 93.5518 -219.857 l 1
 122.357 -185.671 141.049 -142.333 141.049 -90.7109 c 0
170.561 343.95 m 1
 85 429.511 l 1
 170.561 515.071 l 1
 256.121 429.511 l 1
 170.561 343.95 l 1
EndSplineSet
EndChar

StartChar: less
Encoding: 60 60 18
Width: 574
Flags: HMW
LayerCount: 2
Fore
SplineSet
59.1426 257.573 m 1
 45 271.716 l 1
 115.711 342.427 l 1
 515.711 592.427 l 1
 529.854 578.284 l 1
 459.143 507.573 l 1
 155.309 317.678 l 1
 515.711 92.4268 l 1
 529.854 78.2842 l 1
 459.143 7.57324 l 1
 59.1426 257.573 l 1
EndSplineSet
EndChar

StartChar: equal
Encoding: 61 61 19
Width: 849
Flags: HMW
LayerCount: 2
Back
SplineSet
815 220 m 25
 100 220 l 25
100 380 m 25
 815 380 l 25
EndSplineSet
Fore
SplineSet
730.711 252.427 m 1
 744.854 238.284 l 1
 674.143 167.573 l 1
 109.143 167.573 l 1
 95 181.716 l 1
 165.711 252.427 l 1
 730.711 252.427 l 1
109.143 347.573 m 1
 95 361.716 l 1
 165.711 432.427 l 1
 730.711 432.427 l 1
 744.854 418.284 l 1
 674.143 347.573 l 1
 109.143 347.573 l 1
EndSplineSet
EndChar

StartChar: greater
Encoding: 62 62 20
Width: 574
Flags: HMW
LayerCount: 2
Back
SplineSet
100 550 m 29
 500 300 l 29
 100 50 l 29
EndSplineSet
Fore
SplineSet
419.544 282.322 m 1
 59.1426 507.573 l 1
 45 521.716 l 1
 115.711 592.427 l 1
 515.711 342.427 l 1
 529.854 328.284 l 1
 459.143 257.573 l 1
 59.1426 7.57324 l 1
 45 21.7158 l 1
 115.711 92.4268 l 1
 419.544 282.322 l 1
EndSplineSet
EndChar

StartChar: bracketright
Encoding: 93 93 21
Width: 374
Flags: HMW
LayerCount: 2
Fore
SplineSet
265.71 692.427 m 1
 279.853 678.284 l 1
 279.853 -21.7158 l 1
 209.142 -92.4268 l 1
 54.1416 -92.4268 l 5
 40 -78.2842 l 5
 110.71 -7.57324 l 5
 205 -7.57324 l 1
 205 607.573 l 1
 59.1416 607.573 l 1
 45 621.716 l 1
 115.71 692.427 l 1
 265.71 692.427 l 1
EndSplineSet
EndChar

StartChar: grave
Encoding: 96 96 22
Width: 214
Flags: HMW
LayerCount: 2
Fore
SplineSet
94.7344 448.573 m 1
 80.5918 462.715 l 1
 55.4639 499.488 40.5742 545.204 40.5732 594.715 c 0
 40.5713 647.711 57.0938 693.713 85.0938 732.712 c 1
 155.804 803.423 l 1
 169.946 789.28 l 1
 141.947 750.281 125.424 704.279 125.426 651.283 c 0
 125.427 601.772 140.317 556.057 165.445 519.283 c 1
 94.7344 448.573 l 1
EndSplineSet
EndChar

StartChar: afii57690
Encoding: 1514 1514 23
Width: 842
Flags: HMW
AnchorPoint: "DiaToBaseD" 467 0 basechar 0
AnchorPoint: "DiaToBaseO" 80 0 basechar 0
AnchorPoint: "DiaToBaseU" 410 0 basechar 0
AnchorPoint: "DiaToBase3" 390 0 basechar 0
AnchorPoint: "DiaToBase2" 400 0 basechar 0
AnchorPoint: "DiaToBase1" 410 0 basechar 0
LayerCount: 2
Back
SplineSet
21.0654 -9.64355 m 4
 6.92285 4.49805 l 4
 4.09473 7.32617 1.75098 10.4824 -0.0136719 14.0137 c 1
 70.6963 84.7246 l 1
 84.8389 70.582 l 1
 85.1211 70.0176 85.7842 68.8203 85.8623 68.6855 c 1
 101.807 58.5898 124.981 54.7227 147.696 54.7227 c 0
 148.783 54.7227 150.302 54.7764 151.059 54.8145 c 1
 162.741 89.124 169.332 135.521 172.002 191.997 c 0
 176.574 288.717 169.769 378.592 161.83 459.383 c 1
 232.54 530.094 l 1
 246.683 515.951 l 1
 254.619 435.158 261.427 345.285 256.854 248.565 c 0
 252.508 156.618 237.926 91.7773 207.329 60.8232 c 1
 207.072 60.5654 l 0
 136.362 -10.1445 l 0
 123.206 -23.2852 107.94 -30.1299 91.127 -30.1299 c 0
 64.1484 -30.1299 36.3477 -24.6465 21.2734 -9.85059 c 5
 21.2734 -9.85059 21.1572 -9.73633 21.0654 -9.64355 c 4
65.5732 458.716 m 1
 136.284 529.427 l 1
 226.282 611.423 348.287 642.43 465.734 642.427 c 0
 571.941 642.423 656.606 605.354 711.034 550.927 c 0
 725.176 536.784 l 0
 725.731 536.229 725.105 536.855 725.105 536.855 c 1
 725.521 536.438 l 0
 788.139 473.629 818.717 394.768 821.926 326.284 c 0
 824.233 277.042 817.425 232.783 805.927 193.284 c 0
 786.89 127.885 762.408 77.5898 731.876 28.2842 c 1
 661.166 -42.4268 l 1
 647.023 -28.2842 l 1
 677.555 21.0205 702.036 71.3164 721.074 136.716 c 0
 732.571 176.214 739.381 220.474 737.073 269.716 c 0
 733.986 335.584 705.641 410.983 647.744 472.562 c 1
 593.256 523.325 511.076 557.57 409.166 557.573 c 0
 291.718 557.577 169.714 526.57 79.7158 444.573 c 1
 65.5732 458.716 l 1
42.4121 42.2979 m 1
 44.1777 38.7666 46.5215 35.6104 49.3496 32.7822 c 0
 64.1934 17.9375 92.3496 12.2969 119.412 12.2969 c 0
 136.225 12.2969 151.49 19.1406 164.646 32.2812 c 0
 195.318 62.9375 210.065 127.994 214.428 220.281 c 0
 219 317 212.196 406.878 204.256 487.667 c 1
108 487 m 0
 198 569 320 600 437.45 600 c 0
 543.66 600 628.322 562.928 682.75 508.5 c 0
 745.607 445.643 776.284 366.608 779.5 298 c 0
 781.809 248.76 775 204.5 763.5 165 c 0
 744.458 99.5961 719.982 49.3063 689.45 0 c 0
EndSplineSet
Fore
SplineSet
-15.0137 14.0137 m 1
 55.6963 84.7246 l 1
 77 63.4209 103.5 54.7227 132.696 54.7227 c 0
 133.783 54.7227 135.302 54.7764 136.059 54.8145 c 1
 147.741 89.124 154.332 135.521 157.002 191.997 c 0
 161.574 288.717 154.769 378.592 146.83 459.383 c 1
 217.54 530.094 l 1
 231.683 515.951 l 1
 239.619 435.158 246.427 345.285 241.854 248.565 c 0
 237.508 156.618 222.926 91.7773 192.329 60.8232 c 1
 192.072 60.5654 l 0
 121.362 -10.1445 l 0
 108.206 -23.2852 87 -30.1299 61 -30.1299 c 0
 29 -30.1299 -0.635742 -14.7588 -15.0137 14.0137 c 1
50.5732 458.716 m 1
 121.284 529.427 l 1
 211.282 611.423 333.287 642.43 450.734 642.427 c 0
 556.941 642.423 641.606 605.354 696.034 550.927 c 0
 710.176 536.784 l 0
 710.731 536.229 710.105 536.855 710.105 536.855 c 1
 710.521 536.438 l 0
 773.139 473.629 803.717 394.768 806.926 326.284 c 0
 809.233 277.042 802.425 232.783 790.927 193.284 c 0
 771.89 127.885 747.408 77.5898 716.876 28.2842 c 1
 646.166 -42.4268 l 1
 632.023 -28.2842 l 1
 662.555 21.0205 687.036 71.3164 706.074 136.716 c 0
 717.571 176.214 724.381 220.474 722.073 269.716 c 0
 718.986 335.584 690.641 410.983 632.744 472.562 c 1
 578.256 523.325 496.076 557.57 394.166 557.573 c 0
 276.718 557.577 154.714 526.57 64.7158 444.572 c 1
 50.5732 458.716 l 1
EndSplineSet
Substitution2: "WideLetters" uniFB28
Comment: "%DiaToBase1+AD0A-410+AAoA%DiaToBase2+AD0A-400+AAoA%DiaToBase3+AD0A-390+AAoA%DiaToBaseO+AD0A-80+AAoA%DiaToBaseU+AD0A-410+AAoA" 
EndChar

StartChar: quotesingle
Encoding: 39 39 25
Width: 199
Flags: HMW
LayerCount: 2
Back
SplineSet
87.501 760.997 m 5
 112.627 724.222 127.521 678.51 127.521 628.997 c 4
 127.521 576 111 530 83 491 c 5
EndSplineSet
Fore
SplineSet
115.785 803.423 m 5
 129.928 789.281 l 5
 155.056 752.508 169.945 706.792 169.946 657.281 c 4
 169.948 604.285 153.426 558.283 125.426 519.284 c 5
 54.7158 448.573 l 5
 40.5732 462.716 l 5
 68.5723 501.715 85.0957 547.717 85.0938 600.713 c 4
 85.0928 650.224 70.2021 695.939 45.0742 732.713 c 5
 115.785 803.423 l 5
EndSplineSet
EndChar

StartChar: comma
Encoding: 44 44 26
Width: 302
Flags: HMW
LayerCount: 2
Back
SplineSet
125.021 -90.7109 m 0
 125.021 -45.6992 110.126 -4.14453 85 29.2891 c 1
 160.711 105 l 1
 174.853 90.8574 l 1
 199.979 57.4238 214.873 15.8691 214.873 -29.1426 c 0
 214.873 -74.1543 199.979 -115.709 174.853 -149.143 c 1
 99.1426 -224.854 l 1
 85 -210.711 l 1
 110.126 -177.277 125.021 -135.723 125.021 -90.7109 c 0
EndSplineSet
Fore
SplineSet
125.021 -90.7109 m 4
 125.021 -45.6992 110.126 -4.14453 85 29.2891 c 5
 160.711 105 l 5
 174.853 90.8574 l 5
 199.979 57.4238 214.873 15.8691 214.873 -29.1426 c 4
 214.873 -74.1543 198.333 -124 167.377 -158.289 c 5
 91.667 -234 l 5
 77.5244 -219.857 l 5
 106.33 -185.671 125.021 -142.333 125.021 -90.7109 c 4
EndSplineSet
EndChar

StartChar: hyphen
Encoding: 45 45 27
Width: 584
Flags: HMW
LayerCount: 2
Fore
SplineSet
495.711 342.427 m 1
 509.854 328.284 l 1
 439.143 257.573 l 1
 89.1426 257.573 l 1
 75 271.716 l 1
 145.711 342.427 l 1
 495.711 342.427 l 1
EndSplineSet
EndChar

StartChar: period
Encoding: 46 46 28
Width: 341
Flags: HMW
LayerCount: 2
Fore
SplineSet
170.561 -43.2715 m 1
 85 42.2891 l 1
 170.561 127.85 l 1
 256.121 42.2891 l 1
 170.561 -43.2715 l 1
EndSplineSet
EndChar

StartChar: slash
Encoding: 47 47 29
Width: 446
Flags: HMW
LayerCount: 2
Back
SplineSet
305 583.66 m 5
 391.603 633.66 l 5
 401.603 616.34 l 5
 141.603 16.3398 l 5
 55 -33.6602 l 5
 45 -16.3398 l 5
 305 583.66 l 5
360 600 m 29
 100 0 l 29
EndSplineSet
Fore
SplineSet
345 677.66 m 5
 431.603 727.66 l 5
 441.603 710.34 l 5
 101.603 -77.6602 l 1
 15 -127.66 l 1
 5 -110.34 l 1
 345 677.66 l 5
EndSplineSet
EndChar

StartChar: zero
Encoding: 48 48 30
Width: 746
Flags: HMW
LayerCount: 2
Back
SplineSet
649.094 126.503 m 1
 578.383 55.793 l 1
 523.892 3.22461 447.828 -29.4258 363.715 -29.4268 c 0
 277.657 -29.4277 200.023 4.75098 145.303 59.4717 c 2
 130.857 73.917 l 2
 80.458 124.463 49.5732 192.463 49.5732 267.216 c 0
 49.5742 341.829 80.3408 409.713 130.573 460.229 c 2
 182.362 512.017 l 1
 164.126 500.84 147.258 487.849 132.049 473.314 c 1
 117.906 487.457 l 1
 188.617 558.168 l 1
 243.036 610.17 318.688 642.428 402.284 642.426 c 0
 488.339 642.423 565.976 608.25 620.697 553.528 c 2
 635.142 539.083 l 2
 685.538 488.533 716.424 420.536 716.427 345.784 c 0
 716.429 272.242 686.53 205.229 637.57 154.951 c 2
 583.548 100.928 l 1
 602.22 112.362 619.458 125.699 634.951 140.646 c 1
 649.094 126.503 l 1
206.753 525.47 m 1
 215.426 516.797 l 1
 165.196 466.284 134.424 398.395 134.427 323.784 c 0
 134.429 252.344 162.531 187.23 209.064 137.373 c 1
 263.12 86.9141 337.991 55.4287 420.284 55.4258 c 0
 471.58 55.4258 519.886 67.5705 562.129 88.9715 c 1
 552.718 98.3828 l 1
 601.678 148.661 631.576 215.674 631.574 289.216 c 0
 631.571 360.655 603.468 425.771 556.936 475.626 c 1
 502.875 526.083 428.01 557.57 345.716 557.573 c 0
 295.582 557.573 248.306 545.974 206.753 525.47 c 1
160.333 515.741 m 4
 214.753 567.746 290.401 600 374 600 c 4
 539.6 600 674 473.44 674 317.5 c 4
 674 243.956 644.106 176.947 595.145 126.667 c 4
606.667 98.2188 m 4
 552.176 45.6514 476.112 13 392 13 c 4
 226.4 13 92 139.56 92 295.5 c 4
 92 370.112 122.768 437.998 173 488.513 c 4
EndSplineSet
Fore
SplineSet
639.094 126.503 m 1
 568.383 55.793 l 1
 513.892 3.22461 437.828 -29.4258 353.715 -29.4268 c 0
 261.726 -29.4277 183.964 8.81055 127 65.7744 c 0
 74.7744 118 39.5732 187.042 39.5732 267.216 c 0
 39.5742 341.829 70.3408 409.713 120.573 460.229 c 2
 172.362 512.017 l 1
 154.126 500.84 137.258 487.849 122.049 473.314 c 1
 107.906 487.457 l 1
 178.617 558.168 l 1
 233.036 610.17 308.688 642.428 392.284 642.426 c 0
 483.87 642.423 562.686 605.539 619.5 548.725 c 0
 672.018 496.208 706.424 426.331 706.427 345.784 c 0
 706.429 272.242 676.53 205.229 627.57 154.951 c 2
 573.548 100.928 l 1
 592.22 112.362 609.458 125.699 624.951 140.646 c 1
 639.094 126.503 l 1
196.753 525.47 m 1
 205.426 516.797 l 1
 155.196 466.284 124.424 398.395 124.427 323.784 c 0
 124.429 252.344 149.937 188.5 200.064 138.373 c 0
 255 83.4375 327.991 55.4287 410.284 55.4258 c 0
 461.58 55.4258 509.886 67.5703 552.129 88.9717 c 1
 542.718 98.3828 l 1
 591.678 148.661 621.576 215.674 621.574 289.216 c 0
 621.571 360.655 597.5 427.062 547.936 476.626 c 0
 492.562 532 418.01 557.57 335.716 557.573 c 0
 285.582 557.573 238.306 545.974 196.753 525.47 c 1
EndSplineSet
EndChar

StartChar: one
Encoding: 49 49 31
Width: 520
Flags: HMW
LayerCount: 2
Back
SplineSet
40.5732 385.716 m 1
 111.284 456.426 l 1
 241.283 488.426 329.285 556.427 427.284 652.427 c 1
 441.427 638.284 l 1
 441.427 28.2842 l 1
 370.716 -42.4258 l 1
 356.573 -28.2842 l 1
 356.573 553.854 l 1
 264.492 465.471 178.604 402.068 54.7158 371.573 c 1
 40.5732 385.716 l 1
83 414 m 17
 213 446 301 514 399 610 c 1
 399 0 l 9
EndSplineSet
Fore
SplineSet
20.5732 375.716 m 1
 121.284 476.426 l 1
 234 502.089 309.285 556.427 407.284 652.427 c 1
 421.427 638.284 l 1
 421.427 28.2842 l 1
 350.716 -42.4258 l 1
 336.572 -28.2842 l 1
 336.572 553.854 l 1
 244.492 465.471 154 391.089 34.7158 361.572 c 1
 20.5732 375.716 l 1
EndSplineSet
EndChar

StartChar: question
Encoding: 63 63 32
Width: 609
Flags: HMW
LayerCount: 2
Back
SplineSet
170 636 m 16
 222 670 266 686 345 686 c 8
 453.284 686 566.196 637.002 574 529 c 24
 581.816 420.825 464 370 370 340 c 1
 370 230 l 9
362.427 -48.4932 m 1
 284.645 29.2891 l 1
 362.427 107.071 l 1
 440.209 29.2891 l 1
 362.427 -48.4932 l 1
EndSplineSet
Fore
SplineSet
35 607.716 m 1
 105.711 678.426 l 1
 157.709 712.425 201.714 728.429 280.711 728.427 c 0
 351.122 728.425 423.489 707.706 467.646 663.521 c 0
 481.789 649.38 l 0
 505.539 625.615 521.126 595.06 523.853 557.284 c 0
 526.956 514.296 510.229 480.37 483.034 453.202 c 0
 412.323 382.491 l 0
 387.711 357.904 354.359 338.801 319.854 323.705 c 1
 319.853 258.284 l 1
 249.143 187.573 l 1
 235 201.716 l 1
 235 311.716 l 1
 305.711 382.427 l 1
 307.825 383.102 309.952 383.786 312.089 384.482 c 0
 349.954 396.82 390.917 412.52 425.97 434.13 c 1
 435.589 453.021 440.819 475.52 439 500.716 c 0
 436.543 534.751 423.526 563.103 403.684 585.622 c 1
 359.242 624.878 290.707 643.571 224.143 643.574 c 0
 145.146 643.576 101.141 627.571 49.1426 593.573 c 1
 35 607.716 l 1
269.854 -43.2715 m 1
 184.293 42.2891 l 1
 269.854 127.85 l 1
 355.414 42.2891 l 1
 269.854 -43.2715 l 1
EndSplineSet
EndChar

StartChar: bracketleft
Encoding: 91 91 33
Width: 374
Flags: HMW
LayerCount: 2
Back
SplineSet
255 650 m 29
 100 650 l 25
 100 -50 l 25
 250 -50 l 25
EndSplineSet
Fore
SplineSet
109.143 -92.4268 m 1
 95 -78.2842 l 1
 95 621.716 l 1
 165.711 692.427 l 1
 320.711 692.427 l 5
 334.853 678.284 l 5
 264.143 607.573 l 5
 169.853 607.573 l 1
 169.853 -7.57324 l 1
 315.711 -7.57324 l 1
 329.853 -21.7158 l 1
 259.143 -92.4268 l 1
 109.143 -92.4268 l 1
EndSplineSet
EndChar

StartChar: backslash
Encoding: 92 92 34
Width: 434
Flags: HMW
LayerCount: 2
Back
SplineSet
50 571.716 m 1
 120.711 642.427 l 1
 134.853 628.284 l 1
 394.853 28.2842 l 1
 324.143 -42.4268 l 1
 310 -28.2842 l 1
 50 571.716 l 1
EndSplineSet
Fore
SplineSet
50 576.716 m 1
 110.711 637.427 l 5
 124.853 623.284 l 5
 384.853 23.2842 l 5
 324.143 -37.4268 l 1
 310 -23.2842 l 1
 50 576.716 l 1
EndSplineSet
EndChar

StartChar: afii57664
Encoding: 1488 1488 35
Width: 797
Flags: HMW
AnchorPoint: "DiaToBaseD" 297 -152 basechar 0
AnchorPoint: "DiaToBaseO" -10 0 basechar 0
AnchorPoint: "DiaToBaseU" 390 0 basechar 0
AnchorPoint: "DiaToBase3" 390 0 basechar 0
AnchorPoint: "DiaToBase2" 390 0 basechar 0
AnchorPoint: "DiaToBase1" 380 0 basechar 0
LayerCount: 2
Back
SplineSet
52.5742 571.716 m 5
 123.284 642.426 l 1
 559.731 205.98 l 1
 602.368 250.724 640.955 315.45 648.573 392.716 c 0
 655.573 463.715 644.577 520.72 617.573 571.716 c 1
 688.284 642.426 l 1
 702.426 628.284 l 1
 729.43 577.288 740.426 520.283 733.427 449.284 c 0
 725.502 368.904 684.1 301.962 639.134 256.964 c 2
 573.941 191.77 l 1
 737.427 28.2842 l 1
 666.716 -42.4268 l 1
 230.782 393.507 l 1
 188.338 348.782 150.016 284.257 142.427 207.284 c 0
 135.427 136.285 146.425 79.2832 173.427 28.2842 c 1
 102.716 -42.4268 l 1
 88.5732 -28.2842 l 1
 61.5742 22.7158 50.5746 79.7158 57.5742 150.716 c 0
 65.4985 231.096 106.9 298.038 151.865 343.036 c 2
 216.559 407.73 l 1
 52.5742 571.716 l 5
660 600 m 4
 687 549 698 492 691 421 c 4
 682.916 339.008 640 271 594 226 c 4
131 0 m 4
 104 51 93 108 100 179 c 4
 108.084 260.992 151 329 197 374 c 4
95 600 m 29
 695 0 l 29
EndSplineSet
Fore
SplineSet
52.5742 577.716 m 1
 117.284 642.426 l 1
 556.731 202.98 l 1
 599.368 247.724 640.955 315.45 648.573 392.716 c 0
 655.573 463.715 639.577 515.72 612.573 566.716 c 1
 688.284 642.426 l 1
 702.426 628.284 l 1
 729.43 577.288 740.426 520.283 733.427 449.284 c 0
 725.502 368.904 684.115 301.946 639.134 256.964 c 2
 570.941 188.77 l 1
 737.427 22.2842 l 1
 672.716 -42.4268 l 1
 233.782 396.507 l 1
 191.338 351.782 150.016 284.257 142.427 207.284 c 0
 135.427 136.285 151.425 84.2832 178.427 33.2842 c 1
 102.716 -42.4268 l 1
 88.5732 -28.2842 l 1
 61.5742 22.7158 50.5742 79.7158 57.5742 150.716 c 0
 65.498 231.096 106.884 298.055 151.865 343.036 c 2
 219.559 410.73 l 1
 52.5742 577.716 l 1
EndSplineSet
Substitution2: "WideLetters" uniFB21
Comment: "%DiaToBase1+AD0A-380+AAoA%DiaToBase2+AD0A-390+AAoA%DiaToBase3+AD0A-390+AAoA%DiaToBaseU+AD0A-390+AAoA%DiaToBaseO+AD0A--10+AAoA" 
EndChar

StartChar: afii57665
Encoding: 1489 1489 36
Width: 774
Flags: HMW
AnchorPoint: "DiaToBaseD" 359 0 basechar 0
AnchorPoint: "DiaToBaseO" 100 0 basechar 0
AnchorPoint: "DiaToBaseU" 360 0 basechar 0
AnchorPoint: "DiaToBase3" 370 0 basechar 0
AnchorPoint: "DiaToBase2" 370 0 basechar 0
AnchorPoint: "DiaToBase1" 375 0 basechar 0
LayerCount: 2
Back
SplineSet
64.1162 263.574 m 1
 49.9746 277.716 l 1
 49.9746 357.83 82.7495 430.471 135.817 483.539 c 2
 206.528 554.25 l 2
 260.982 608.655 336.835 642.428 420.684 642.426 c 0
 505.794 642.423 586.045 611.666 641.284 556.427 c 2
 655.37 542.341 l 1
 655.73 541.979 l 2
 707.49 489.939 734.824 413.006 734.826 334.284 c 0
 734.829 253.192 701.424 180.922 647.026 126.524 c 2
 582.929 62.4268 l 1
 720.685 62.4268 l 1
 734.826 48.2842 l 1
 664.116 -22.4258 l 1
 64.1162 -22.4258 l 1
 49.9746 -8.28418 l 1
 120.685 62.4268 l 1
 569.704 62.4268 l 1
 562.174 69.9561 l 1
 616.571 124.354 649.976 196.624 649.974 277.716 c 0
 649.971 353.136 624.938 426.907 577.283 478.72 c 1
 522.729 529.173 445.376 557.57 364.115 557.573 c 0
 298.465 557.575 237.781 536.914 188.266 501.745 c 1
 154.79 454.49 134.825 396.571 134.827 334.284 c 1
 64.1162 263.574 l 1
92.4004 20 m 29
 692.4 20 l 29
92.4004 306 m 4
 92.4004 468.288 226.8 600 392.4 600 c 4
 477.512 600 557.761 569.239 613 514 c 4
 665 462 692.4 384.878 692.4 306 c 4
 692.4 224.906 659 152.64 604.6 98.2402 c 5
EndSplineSet
Fore
SplineSet
49.1162 263.574 m 1
 34.9746 277.716 l 1
 34.9746 357.83 67.749 430.471 120.817 483.539 c 2
 191.528 554.25 l 2
 245.982 608.655 321.835 642.428 405.684 642.426 c 0
 496.464 642.423 576.655 608.056 634 550.711 c 0
 688.191 496.52 719.824 419.449 719.826 334.284 c 0
 719.829 253.192 680.398 171.897 626 117.5 c 2
 571 62.4268 l 1
 705.685 62.4268 l 1
 719.826 48.2842 l 1
 649.116 -22.4258 l 1
 49.1162 -22.4258 l 1
 34.9746 -8.28418 l 1
 105.685 62.4268 l 1
 557.775 62.4268 l 1
 550.245 69.9561 l 1
 603.571 132 634.502 203.908 634.5 285 c 0
 634.497 360.42 609 429.003 560.283 477.72 c 0
 505.503 532.5 430.376 557.57 349.115 557.573 c 0
 283.465 557.575 222.781 536.914 173.266 501.745 c 1
 139.79 454.49 119.825 396.571 119.827 334.284 c 1
 49.1162 263.574 l 1
EndSplineSet
Comment: "%DiaToBase1+AD0A-375+AAoA%DiaToBase2+AD0A-370+AAoA%DiaToBase3+AD0A-370+AAoA%DiaToBaseO+AD0A-100+AAoA%DiaToBaseU+AD0A-360+AAoA" 
EndChar

StartChar: afii57666
Encoding: 1490 1490 37
Width: 636
Flags: HMW
AnchorPoint: "DiaToBaseD" 249 0 basechar 0
AnchorPoint: "DiaToBaseO" 50 0 basechar 0
AnchorPoint: "DiaToBaseU" 280 0 basechar 0
AnchorPoint: "DiaToBase3" 300 0 basechar 0
AnchorPoint: "DiaToBase2" 295 0 basechar 0
AnchorPoint: "DiaToBase1" 290 0 basechar 0
LayerCount: 2
Back
SplineSet
78.873 509.715 m 1
 149.584 580.426 l 1
 192.5 622 249.002 642.428 309 642.426 c 0
 371.2 642.424 413.261 618.742 446 586 c 0
 506.329 525.666 513.643 445.952 526.326 333.284 c 0
 540.5 207.377 558.425 104.283 629.526 21.2842 c 1
 565.815 -42.4268 l 1
 551.674 -28.2842 l 1
 509.175 21.326 485.675 78.1155 470.618 142.665 c 1
 435.682 107.729 l 2
 346.066 18.2803 271.408 -29.9251 172.716 -29.9258 c 0
 129.91 -29.9261 89.8472 -16.8482 63.1729 9.82617 c 2
 49.0312 23.9678 l 2
 35.2861 37.7324 25.1113 55.1221 19.9736 76.2158 c 1
 90.6846 146.927 l 1
 104.827 132.784 l 1
 109.108 115.203 116.68 100.514 127.227 87.8281 c 1
 153.411 65.9395 190.38 54.9268 229.284 54.9268 c 0
 318.025 54.9268 387.481 94.0471 465.455 166.686 c 1
 458.213 203.288 453.14 242.266 448.474 283.716 c 0
 437.262 383.312 424.527 467.481 375.812 516.196 c 0
 346.508 545.5 307.963 557.571 255.716 557.573 c 0
 195.717 557.575 138.614 537.572 93.0156 495.573 c 1
 78.873 509.715 l 1
78.873 509.715 m 1
 149.584 580.426 l 1
 195.184 622.425 252.286 642.428 312.284 642.426 c 0
 368.882 642.424 409.155 624.662 439.393 594.426 c 2
 453.83 579.988 l 2
 509.577 524.003 521.619 444.279 533.326 340.284 c 0
 547.5 214.377 565.425 111.283 636.526 28.2842 c 1
 565.815 -42.4268 l 1
 551.674 -28.2842 l 1
 509.175 21.326 485.675 78.1155 470.618 142.665 c 1
 436.315 108.362 l 1
 435.682 107.729 l 2
 346.066 18.2803 271.408 -29.9251 172.716 -29.9258 c 0
 129.91 -29.9261 89.8472 -16.8482 63.1729 9.82617 c 2
 49.0312 23.9678 l 2
 35.2861 37.7324 25.1113 55.1221 19.9736 76.2158 c 1
 90.6846 146.927 l 1
 104.827 132.784 l 1
 109.108 115.203 116.68 100.514 127.227 87.8281 c 1
 153.411 65.9395 190.38 54.9268 229.284 54.9268 c 0
 318.025 54.9268 387.481 94.0471 465.455 166.686 c 1
 458.213 203.288 453.14 242.266 448.474 283.716 c 0
 437.262 383.312 425.737 460.672 375.812 516.196 c 1
 346.732 542.121 307.963 557.571 255.716 557.573 c 0
 195.717 557.575 138.614 537.572 93.0156 495.573 c 1
 78.873 509.715 l 1
464.6 150.789 m 0
 375 61.189 300 12.5 201 12.5 c 0
 136.122 12.5 77.5 42.5 62.4004 104.5 c 0
121.3 538 m 16
 166.9 580 224 600 284 600 c 0
 340.6 600 380.872 582.237 411.109 552 c 0
 467.109 496 479.179 416.183 490.9 312 c 0
 505.065 186.086 523 83 594.1 0 c 0
EndSplineSet
Fore
SplineSet
68.873 509.715 m 1
 139.584 580.426 l 1
 182.5 622 239.002 642.428 299 642.426 c 0
 361.2 642.424 403.261 618.742 436 586 c 0
 496.329 525.666 503.643 445.952 516.326 333.284 c 0
 530.5 207.377 548.425 104.283 619.526 21.2842 c 1
 555.815 -42.4268 l 1
 541.674 -28.2842 l 1
 499.175 21.3262 475.675 78.1152 460.618 142.665 c 1
 425.682 107.729 l 2
 336.066 18.2803 261.408 -29.9248 162.716 -29.9258 c 0
 113.522 -29.9258 74.1475 -13.1484 45 15.999 c 0
 28.7002 32.2988 16.1973 50.6611 9.97363 76.2158 c 1
 80.6846 146.927 l 1
 94.8271 132.784 l 1
 99.1084 115.203 104.376 102.68 118.227 88.8281 c 0
 141.722 65.333 180.38 54.9268 219.284 54.9268 c 0
 308.025 54.9268 377.481 94.0469 455.455 166.686 c 1
 448.213 203.288 443.14 242.266 438.474 283.716 c 0
 427.262 383.312 414.527 467.481 365.812 516.196 c 0
 336.508 545.5 297.963 557.571 245.716 557.573 c 0
 185.717 557.575 128.614 537.572 83.0156 495.572 c 1
 68.873 509.715 l 1
EndSplineSet
Comment: "%DiaToBase1+AD0A-290+AAoA%DiaToBase2+AD0A-295+AAoA%DiaToBase3+AD0A-300+AAoA%DiaToBaseO+AD0A-50+AAoA%DiaToBaseU+AD0A-280+AAoA" 
EndChar

StartChar: afii57667
Encoding: 1491 1491 38
Width: 698
Flags: HMW
AnchorPoint: "DiaToBaseD" 267 0 basechar 0
AnchorPoint: "DiaToBaseO" -70 0 basechar 0
AnchorPoint: "DiaToBaseU" 380 0 basechar 0
AnchorPoint: "DiaToBase3" 400 0 basechar 0
AnchorPoint: "DiaToBase2" 420 0 basechar 0
AnchorPoint: "DiaToBase1" 430 0 basechar 0
LayerCount: 2
Back
SplineSet
535 520 m 16
 499.812 482.019 475.866 429.469 463.5 369.5 c 0
 453.726 322.102 452 270.255 452 216 c 2
 452 216 452 84.2402 452 0 c 24
63 600 m 21
 265 572 453 572 667 600 c 13
EndSplineSet
Fore
SplineSet
5.57324 571.716 m 1
 76.2842 642.426 l 1
 278.279 614.422 466.284 614.425 680.284 642.426 c 1
 694.427 628.284 l 1
 623.716 557.573 l 1
 602.452 554.791 581.445 552.285 560.655 550.056 c 1
 562.427 548.284 l 1
 527.239 510.305 503.291 457.752 490.926 397.784 c 0
 481.152 350.387 479.427 298.538 479.427 244.284 c 2
 479.427 28.2842 l 1
 408.716 -42.4268 l 1
 394.572 -28.2842 l 1
 394.572 187.716 l 2
 394.572 241.97 396.3 293.818 406.072 341.216 c 0
 418.438 401.183 442.387 453.736 477.574 491.716 c 1
 533.109 547.252 l 1
 355.49 530.146 192.735 533.586 19.7158 557.573 c 1
 5.57324 571.716 l 1
EndSplineSet
Substitution2: "WideLetters" uniFB22
Comment: "%DiaToBase1+AD0A-430+AAoA%DiaToBase2+AD0A-420+AAoA%DiaToBase3+AD0A-400+AAoA%DiaToBaseO+AD0A--70+AAoA%DiaToBaseU+AD0A-380+AAoA" 
EndChar

StartChar: afii57668
Encoding: 1492 1492 39
Width: 788
Flags: HMW
AnchorPoint: "DiaToBaseD" 392 0 basechar 0
AnchorPoint: "DiaToBaseO" 50 0 basechar 0
AnchorPoint: "DiaToBaseU" 350 0 basechar 0
AnchorPoint: "DiaToBase3" 360 0 basechar 0
AnchorPoint: "DiaToBase2" 340 0 basechar 0
AnchorPoint: "DiaToBase1" 365 0 basechar 0
LayerCount: 2
Back
SplineSet
134.784 336.427 m 1
 148.927 322.284 l 1
 204.924 238.28 200.927 118.285 148.926 28.2842 c 1
 78.2158 -42.4268 l 1
 64.0732 -28.2842 l 1
 116.072 61.7148 120.075 181.718 64.0732 265.716 c 1
 134.784 336.427 l 1
50.0732 492.374 m 1
 120.784 563.085 l 1
 197.242 617.066 277.451 642.43 387.484 642.427 c 0
 499.088 642.423 581.114 604.612 636.765 548.963 c 0
 650.906 534.82 l 0
 713.893 471.834 743.062 385.972 743.064 306.206 c 0
 743.068 190.919 698.826 101.277 653.626 28.2842 c 1
 582.916 -42.4268 l 1
 568.773 -28.2842 l 1
 613.974 44.709 658.215 134.351 658.212 249.638 c 0
 658.209 326.503 631.346 408.592 572.989 471.078 c 1
 517.93 522.561 437.703 557.57 330.916 557.573 c 0
 220.883 557.577 140.673 532.214 64.2158 478.231 c 1
 50.0732 492.374 l 1
106.5 294 m 16
 162.5 210 158.5 90 106.5 0 c 8
92.5 520.658 m 4
 168.96 574.643 249.164 600 359.2 600 c 4
 597.126 600 700.638 428.168 700.638 277.921 c 4
 700.638 162.631 656.401 72.9953 611.2 0 c 4
EndSplineSet
Fore
SplineSet
131.784 338.427 m 1
 145.927 324.284 l 1
 201.924 240.28 197.927 120.285 145.926 30.2842 c 1
 73.2158 -42.4268 l 1
 59.0732 -28.2842 l 1
 111.072 61.7148 115.075 181.718 59.0732 265.716 c 1
 131.784 338.427 l 1
45.0732 492.374 m 1
 115.784 563.085 l 1
 192.242 617.066 272.451 642.43 382.484 642.427 c 0
 494.088 642.423 576.114 604.612 631.765 548.963 c 0
 645.906 534.82 l 0
 708.893 471.834 738.062 385.972 738.064 306.206 c 0
 738.068 190.919 693.826 101.277 648.626 28.2842 c 1
 577.916 -42.4268 l 1
 563.773 -28.2842 l 1
 608.974 44.709 653.215 134.351 653.212 249.638 c 0
 653.209 326.503 626.346 408.592 567.989 471.078 c 1
 512.93 522.561 432.703 557.57 325.916 557.573 c 0
 215.883 557.577 135.673 532.214 59.2158 478.231 c 1
 45.0732 492.374 l 1
EndSplineSet
Substitution2: "WideLetters" uniFB23
Comment: "%DiaToBase1+AD0A-365+AAoA%DiaToBase2+AD0A-340+AAoA%DiaToBase3+AD0A-360+AAoA%DiaToBaseO+AD0A-50+AAoA%DiaToBaseU+AD0A-350+AAoA" 
EndChar

StartChar: afii57669
Encoding: 1493 1493 40
Width: 284
Flags: HMW
AnchorPoint: "DiaToBaseD" 80 0 basechar 0
AnchorPoint: "DiaToBaseU" 135 0 basechar 0
AnchorPoint: "DiaToBase3" 135 0 basechar 0
AnchorPoint: "DiaToBase2" 135 0 basechar 0
AnchorPoint: "DiaToBase1" 140 0 basechar 0
LayerCount: 2
Back
SplineSet
142 612 m 25
 142 0 l 25
EndSplineSet
Fore
SplineSet
170.284 654.426 m 1
 184.426 640.284 l 1
 184.427 28.2842 l 1
 113.716 -42.4268 l 1
 99.5732 -28.2842 l 1
 99.5732 583.716 l 1
 170.284 654.426 l 1
EndSplineSet
Comment: "%DiaToBase1+AD0A-140+AAoA%DiaToBase2+AD0A-135+AAoA%DiaToBase3+AD0A-135+AAoA%DiaToBaseU+AD0A-135+AAoA" 
EndChar

StartChar: afii57670
Encoding: 1494 1494 41
Width: 466
Flags: HMW
AnchorPoint: "DiaToBaseD" 85 0 basechar 0
AnchorPoint: "DiaToBaseO" -10 0 basechar 0
AnchorPoint: "DiaToBaseU" 200 0 basechar 0
AnchorPoint: "DiaToBase3" 220 0 basechar 0
AnchorPoint: "DiaToBase2" 220 0 basechar 0
AnchorPoint: "DiaToBase1" 210 0 basechar 0
LayerCount: 2
Back
SplineSet
290 520 m 5
 254.812 482.019 230.866 429.469 218.5 369.5 c 4
 208.726 322.102 207 270.255 207 216 c 6
 207 216 207 84.2402 207 0 c 5
92 600 m 21
 204 564 306 564 404 600 c 13
EndSplineSet
Fore
SplineSet
49.5742 571.716 m 1
 120.285 642.427 l 1
 232.288 606.43 334.281 606.424 432.284 642.427 c 1
 446.427 628.284 l 1
 375.716 557.574 l 1
 359.782 551.721 343.742 546.819 327.571 542.869 c 1
 295.028 505.379 272.714 454.952 260.926 397.784 c 0
 251.153 350.387 249.427 298.538 249.427 244.284 c 2
 249.427 28.2842 l 1
 178.716 -42.4268 l 1
 164.573 -28.2842 l 1
 164.573 187.716 l 2
 164.573 241.97 166.3 293.818 176.073 341.215 c 0
 188.439 401.184 212.387 453.735 247.574 491.716 c 1
 291.535 535.678 l 1
 219.266 524.449 144.067 531.75 63.7158 557.574 c 1
 49.5742 571.716 l 1
EndSplineSet
Comment: "%DiaToBase1+AD0A-210+AAoA%DiaToBase2+AD0A-220+AAoA%DiaToBase3+AD0A-220+AAoA%DiaToBaseU+AD0A-200+AAoA%DiaToBaseO+AD0A--10+AAoA" 
EndChar

StartChar: afii57671
Encoding: 1495 1495 42
Width: 822
Flags: HMW
AnchorPoint: "DiaToBaseD" 409 0 basechar 0
AnchorPoint: "DiaToBaseO" 80 0 basechar 0
AnchorPoint: "DiaToBaseU" 380 0 basechar 0
AnchorPoint: "DiaToBase3" 390 0 basechar 0
AnchorPoint: "DiaToBase2" 370 0 basechar 0
AnchorPoint: "DiaToBase1" 390 0 basechar 0
LayerCount: 2
Back
SplineSet
122 520.658 m 0
 198.46 574.643 278.664 600 388.7 600 c 0
 626.626 600 730.138 428.168 730.138 277.922 c 0
 730.138 162.631 685.901 72.9951 640.7 0 c 0
122 473 m 17
 122 0 l 9
EndSplineSet
Fore
SplineSet
79.5732 492.374 m 1
 150.284 563.085 l 1
 226.742 617.067 306.952 642.429 416.984 642.426 c 0
 528.588 642.422 610.614 604.612 666.265 548.963 c 2
 680.406 534.82 l 2
 743.39 471.832 772.562 385.973 772.564 306.206 c 0
 772.567 190.92 728.328 101.278 683.126 28.2842 c 1
 612.416 -42.4268 l 1
 598.273 -28.2842 l 1
 643.476 44.71 687.714 134.352 687.711 249.638 c 0
 687.709 326.503 660.846 408.592 602.489 471.079 c 1
 547.43 522.562 467.202 557.57 360.416 557.573 c 0
 277.933 557.573 212.209 543.325 152.262 513.449 c 1
 164.426 501.284 l 1
 164.426 28.2842 l 1
 93.7158 -42.4268 l 1
 79.5732 -28.2842 l 1
 79.5732 444.716 l 1
 144.151 509.293 l 1
 126.987 500.258 110.264 489.915 93.7158 478.231 c 1
 79.5732 492.374 l 1
EndSplineSet
Comment: "%DiaToBase1+AD0A-390+AAoA%DiaToBase2+AD0A-370+AAoA%DiaToBase3+AD0A-390+AAoA%DiaToBaseO+AD0A-80+AAoA%DiaToBaseU+AD0A-380+AAoA" 
EndChar

StartChar: afii57672
Encoding: 1496 1496 43
Width: 792
Flags: HMW
AnchorPoint: "DiaToBaseD" 434 -26 basechar 0
AnchorPoint: "DiaToBaseO" -20 0 basechar 0
AnchorPoint: "DiaToBaseU" 370 0 basechar 0
AnchorPoint: "DiaToBase3" 385 0 basechar 0
AnchorPoint: "DiaToBase2" 380 0 basechar 0
AnchorPoint: "DiaToBase1" 380 0 basechar 0
LayerCount: 2
Back
SplineSet
120.834 648.426 m 1
 134.977 634.284 l 1
 136.986 378.84 177.313 168.649 293.688 45.7402 c 1
 295.008 44.4902 296.021 43.5449 297.234 42.4268 c 1
 415.679 42.4277 520.225 66.0801 596.518 120.83 c 1
 612.483 143.271 625.562 167.881 636.023 195.716 c 0
 674.41 297.839 660.463 426.164 590.254 503.487 c 1
 553.577 536.81 504.213 557.572 441.716 557.573 c 0
 413.085 557.574 387.307 551.521 365.798 540.388 c 1
 353.016 517.896 344.948 494.273 341.877 470.284 c 1
 271.166 399.573 l 1
 257.023 413.716 l 1
 262.199 454.14 282.089 494.746 312.441 525.377 c 1
 312.967 525.904 l 0
 383.678 596.614 l 0
 383.912 596.85 384.148 597.083 384.384 597.316 c 0
 415.119 627.684 452.201 642.428 498.284 642.427 c 0
 564.802 642.425 616.438 618.901 653.741 581.758 c 0
 654.066 581.434 l 1
 654.066 581.434 653.63 581.87 654.062 581.437 c 0
 668.205 567.294 l 0
 744.445 491.008 760.482 357.652 720.877 252.284 c 0
 703.967 207.296 679.865 170.125 649.391 139.542 c 1
 649.078 139.229 l 0
 578.367 68.5186 l 0
 499.621 -10.1943 379.971 -42.4248 240.666 -42.4258 c 5
 237.108 -39.1465 233.842 -36.0166 230.295 -32.4814 c 5
 215.82 -18.0059 l 4
 93.8906 103.924 52.1729 317.204 50.123 577.716 c 5
 120.834 648.426 l 1
92.5498 606 m 16
 94.6504 338 138.75 120 268.95 0 c 1
 462.15 0 617.55 62 678.45 224 c 8
 737.449 380.943 673 600 470 600 c 0
 423.915 600 386.836 585.258 356.1 554.89 c 0
 325.293 524.451 304.706 483.047 299.45 442 c 8
EndSplineSet
Fore
SplineSet
120.834 648.426 m 1
 134.977 634.284 l 1
 136.986 378.84 177.313 168.649 293.688 45.7402 c 1
 295.008 44.4902 296.021 43.5449 297.234 42.4268 c 1
 415.679 42.4277 520.225 66.0801 596.518 120.83 c 1
 612.483 143.271 625.562 167.881 636.023 195.716 c 0
 674.41 297.839 660.463 426.164 590.254 503.487 c 1
 553.577 536.81 504.213 557.572 441.716 557.573 c 0
 413.085 557.574 387.307 551.521 365.798 540.388 c 1
 353.016 517.896 344.947 494.273 341.877 470.284 c 1
 271.166 399.572 l 1
 257.023 413.716 l 1
 262.199 454.14 282.089 494.746 312.441 525.377 c 2
 384.384 597.316 l 2
 415.119 627.684 452.201 642.428 498.284 642.427 c 0
 570.597 642.425 621.987 615.512 661.667 575.832 c 0
 740.038 497.461 763.479 365.622 720.877 252.284 c 0
 703.967 207.296 679.865 170.125 649.391 139.542 c 2
 578.367 68.5186 l 2
 499.621 -10.1943 376 -42.4258 250.666 -42.4258 c 1
 242.278 -34.3828 234.034 -26.2197 225.82 -18.0059 c 0
 103.891 103.924 57.1729 322.204 55.123 582.716 c 1
 120.834 648.426 l 1
EndSplineSet
Comment: "%DiaToBase1+AD0A-380+AAoA%DiaToBase2+AD0A-380+AAoA%DiaToBase3+AD0A-385+AAoA%DiaToBaseO+AD0A--20+AAoA%DiaToBaseU+AD0A-370+AAoA" 
EndChar

StartChar: afii57673
Encoding: 1497 1497 44
Width: 264
Flags: HMW
AnchorPoint: "DiaToBaseD" 77 73 basechar 0
AnchorPoint: "DiaToBaseU" 125 0 basechar 0
AnchorPoint: "DiaToBase3" 125 0 basechar 0
AnchorPoint: "DiaToBase2" 125 0 basechar 0
AnchorPoint: "DiaToBase1" 135 0 basechar 0
LayerCount: 2
Back
SplineSet
142 612 m 29
 142 302 l 25
EndSplineSet
Fore
SplineSet
160.284 654.426 m 5
 174.426 640.284 l 5
 174.426 330.284 l 1
 103.716 259.572 l 1
 89.5732 273.716 l 1
 89.5732 583.716 l 5
 160.284 654.426 l 5
EndSplineSet
Comment: "%DiaToBase1+AD0A-135+AAoA%DiaToBase2+AD0A-125+AAoA%DiaToBase3+AD0A-125+AAoA%DiaToBaseU+AD0A-125+AAoA" 
EndChar

StartChar: afii57674
Encoding: 1498 1498 45
Width: 722
Flags: HMW
AnchorPoint: "DiaToBaseD" 316 0 basechar 0
LayerCount: 2
Back
SplineSet
63 505 m 4
 128 563 215 600 325 600 c 4
 417 600 500.218 563.782 554 510 c 4
 604 460 630 389 630 313 c 4
 630 221 587.36 143 534.36 90 c 4
 500.577 56.2165 477.592 20.0794 463.881 -17 c 4
 453.043 -46.3103 448 -84 448 -128 c 14
 448 -400 l 29
EndSplineSet
Fore
SplineSet
30.5732 476.716 m 1
 101.284 547.427 l 1
 166.281 605.424 253.288 642.43 363.284 642.427 c 0
 455.282 642.424 538.502 606.208 592.284 552.426 c 0
 606.426 538.284 l 0
 606.908 537.802 606.373 538.337 606.373 538.337 c 1
 606.734 537.975 l 0
 656.534 487.992 682.424 417.126 682.427 341.284 c 0
 682.43 249.287 639.784 171.282 586.786 118.284 c 0
 553.003 84.501 530.018 48.3623 516.307 11.2842 c 0
 505.469 -18.0264 500.428 -55.7139 500.427 -99.7158 c 0
 500.427 -371.716 l 1
 429.716 -442.426 l 1
 415.574 -428.284 l 1
 415.574 -156.284 l 0
 415.574 -112.284 420.616 -74.5947 431.454 -45.2842 c 0
 445.164 -8.20605 468.15 27.9326 501.934 61.7158 c 0
 554.932 114.714 597.576 192.719 597.573 284.716 c 0
 597.571 357.267 573.997 425.052 528.308 474.697 c 1
 474.731 524.276 394.507 557.571 306.716 557.574 c 0
 196.72 557.577 109.713 520.571 44.7158 462.572 c 1
 30.5732 476.716 l 1
EndSplineSet
EndChar

StartChar: afii57675
Encoding: 1499 1499 46
Width: 686
Flags: HMW
AnchorPoint: "DiaToBaseD" 297 0 basechar 0
AnchorPoint: "DiaToBaseO" 30 0 basechar 0
AnchorPoint: "DiaToBaseU" 300 0 basechar 0
AnchorPoint: "DiaToBase3" 320 0 basechar 0
AnchorPoint: "DiaToBase2" 300 0 basechar 0
AnchorPoint: "DiaToBase1" 310 0 basechar 0
LayerCount: 2
Back
SplineSet
79 529.078 m 4
 136.612 573.279 221.716 600 303.57 600 c 4
 485.302 600 613.042 470.288 613.042 305.288 c 4
 613.042 139.288 475.105 12 293.376 12 c 4
 203.735 12 122.426 44.0459 63.0391 96 c 4
EndSplineSet
Fore
SplineSet
36.5742 500.794 m 1
 107.284 571.505 l 1
 164.895 615.704 250.003 642.429 331.854 642.427 c 0
 424.356 642.424 502.876 608.82 557.674 554.056 c 0
 571.965 539.765 l 0
 572.524 539.205 571.845 539.886 571.845 539.886 c 1
 572.264 539.466 l 0
 624.852 486.685 655.466 414.354 655.469 333.572 c 0
 655.471 254.978 624.544 185.057 572.694 133.219 c 0
 501.983 62.5088 l 0
 444.322 4.86133 360.777 -30.4258 265.092 -30.4268 c 0
 175.45 -30.4268 94.1416 1.61914 34.7549 53.5742 c 1
 20.6133 67.7158 l 1
 91.3232 138.427 l 1
 150.711 86.4727 232.021 54.4297 321.66 54.4268 c 0
 397.705 54.4238 466.012 76.6689 519.938 114.833 c 1
 551.975 160.546 570.617 216.262 570.615 277.004 c 0
 570.613 354.379 542.57 423.922 493.974 476.086 c 1
 439.854 526.505 363.764 557.571 275.286 557.574 c 0
 193.435 557.576 108.326 530.852 50.7158 486.652 c 1
 36.5742 500.794 l 1
EndSplineSet
Substitution2: "WideLetters" uniFB24
Comment: "%DiaToBase1+AD0A-310+AAoA%DiaToBase2+AD0A-300+AAoA%DiaToBase3+AD0A-320+AAoA%DiaToBaseO+AD0A-30+AAoA%DiaToBaseU+AD0A-300+AAoA" 
EndChar

StartChar: afii57676
Encoding: 1500 1500 47
Width: 686
Flags: HMW
AnchorPoint: "DiaToBaseD" 293 0 basechar 0
AnchorPoint: "DiaToBaseO" -70 0 basechar 0
AnchorPoint: "DiaToBaseU" 290 0 basechar 0
AnchorPoint: "DiaToBase3" 310 0 basechar 0
AnchorPoint: "DiaToBase2" 300 0 basechar 0
AnchorPoint: "DiaToBase1" 305 0 basechar 0
LayerCount: 2
Back
SplineSet
150.715 31.1074 m 0
 195.574 16.9688 239.667 12.002 286.334 12.002 c 0
 468.063 12.002 606 139.288 606 305.288 c 0
 606 470.288 478.26 600 296.528 600 c 0
 229 600 157 586 93.0547 552 c 9
 93.0195 801 l 25
EndSplineSet
Fore
SplineSet
108.288 2.82324 m 1
 178.999 73.5332 l 1
 223.857 59.3945 267.952 54.4297 314.618 54.4277 c 0
 390.764 54.4258 459.348 76.9365 512.896 114.835 c 1
 545.188 160.911 563.575 216.349 563.573 277.004 c 0
 563.571 354.278 535.252 424.219 486.932 476.086 c 1
 432.509 526.787 356.815 557.571 268.244 557.574 c 0
 200.717 557.576 128.713 543.57 64.7705 509.574 c 5
 50.6289 523.716 l 5
 50.5928 772.716 l 5
 121.304 843.426 l 5
 135.445 829.284 l 5
 135.479 601.561 l 5
 195.277 630.133 262.193 642.429 324.812 642.427 c 0
 417.146 642.424 495.546 608.94 550.333 554.354 c 0
 550.475 554.213 l 0
 550.727 553.962 550.191 554.496 550.632 554.056 c 0
 564.924 539.765 l 0
 617.696 486.96 648.424 414.506 648.426 333.572 c 0
 648.429 255.142 617.7 185.42 565.9 133.468 c 1
 565.652 133.22 l 0
 494.941 62.5088 l 0
 437.278 4.8623 353.736 -30.4238 258.05 -30.4248 c 0
 211.384 -30.4229 167.29 -25.458 122.431 -11.3193 c 1
 108.288 2.82324 l 1
EndSplineSet
Substitution2: "WideLetters" uniFB25
Comment: "%DiaToBase1+AD0A-305+AAoA%DiaToBase2+AD0A-300+AAoA%DiaToBase3+AD0A-310+AAoA%DiaToBaseO+AD0A--70+AAoA%DiaToBaseU+AD0A-290+AAoA" 
EndChar

StartChar: afii57677
Encoding: 1501 1501 48
Width: 763
Flags: HMW
AnchorPoint: "DiaToBaseD" 392 0 basechar 0
LayerCount: 2
Back
SplineSet
89.5732 -8.28418 m 1
 160.284 62.4268 l 1
 574.191 62.4268 l 1
 576.421 64.7012 577.073 65.4404 577.073 65.4404 c 1
 577.073 278.716 l 6
 577.073 335.528 573.07 386.712 554.773 427.216 c 4
 546.544 445.434 534.521 463.009 519.998 478.847 c 5
 503.374 494.137 484.239 507.412 463.916 517.573 c 4
 411.127 543.965 350.847 557.571 283.027 557.573 c 4
 219.757 557.573 159.451 551.485 103.844 534.911 c 1
 116.471 522.284 l 1
 116.471 28.2842 l 1
 45.7607 -42.4268 l 1
 31.6182 -28.2842 l 1
 31.6182 465.716 l 1
 99.4932 533.59 l 1
 69.4071 524.283 40.7219 511.846 13.7158 495.573 c 1
 -0.426758 509.716 l 1
 70.2842 580.427 l 1
 148.282 627.424 240.287 642.429 339.596 642.426 c 0
 407.415 642.423 467.695 628.817 520.484 602.426 c 0
 543.733 590.803 565.371 575.138 583.585 556.98 c 2
 598.018 542.547 l 2
 615.708 524.847 630.139 504.786 639.626 483.784 c 0
 657.922 443.28 661.925 392.098 661.927 335.284 c 2
 661.927 122.009 l 2
 662.139 122.009 644.466 104.283 626.402 86.21 c 2
 624.513 84.3193 l 1
 624.276 84.083 l 1
 553.565 13.373 l 2
 535.495 -4.69714 517.716 -22.4258 517.716 -22.4258 c 1
 103.716 -22.4258 l 1
 89.5732 -8.28418 l 1
132 20 m 25
 546 20 l 25
 546 20 619.934 93.7246 619.5 93.7246 c 9
 619.5 176.902 619.5 259.773 619.5 307 c 0
 619.5 363.814 615.5 415 597.2 455.5 c 0
 577.91 498.191 538.2 537 492.2 560 c 0
 439.413 586.393 379.133 600 311.312 600 c 0
 212 600 120 585 42 538 c 1
74.0449 494 m 25
 74.0449 0 l 25
EndSplineSet
Fore
SplineSet
139.573 -8.28418 m 1
 210.284 62.4268 l 1
 624.191 62.4268 l 1
 626.421 64.7012 627.073 65.4404 627.073 65.4404 c 1
 627.073 288.716 l 2
 627.073 345.528 623.07 396.712 604.773 437.216 c 0
 596.544 455.434 584.521 473.009 569.998 488.847 c 1
 553.374 504.137 534.238 517.412 513.916 527.573 c 0
 461.127 553.965 400.847 567.571 333.027 567.573 c 0
 269.757 567.573 211 557.5 153.844 537.911 c 1
 166.471 525.284 l 1
 166.471 28.2842 l 1
 95.7607 -42.4268 l 1
 81.6182 -28.2842 l 1
 81.6182 468.716 l 1
 149.493 536.59 l 1
 120.5 526 90.7217 511.846 63.7158 495.572 c 1
 49.5732 509.716 l 1
 105.284 565.427 l 1
 182 615.5 279.5 642.426 389.596 642.426 c 0
 457.415 642.426 517.695 628.817 570.484 602.426 c 0
 593.733 590.803 615.371 575.138 633.585 556.98 c 2
 648.018 542.547 l 2
 665.708 524.847 680.139 504.786 689.626 483.784 c 0
 707.922 443.28 711.925 392.098 711.927 335.284 c 2
 711.927 122.009 l 2
 712.139 122.009 694.466 104.283 676.402 86.21 c 2
 674.513 84.3193 l 1
 674.276 84.083 l 1
 603.565 13.373 l 2
 585.495 -4.69727 567.716 -22.4258 567.716 -22.4258 c 1
 153.716 -22.4258 l 1
 139.573 -8.28418 l 1
EndSplineSet
Substitution2: "WideLetters" uniFB26
EndChar

StartChar: afii57678
Encoding: 1502 1502 49
Width: 802
Flags: HMW
AnchorPoint: "DiaToBaseD" 422 0 basechar 0
AnchorPoint: "DiaToBaseU" 390 0 basechar 0
AnchorPoint: "DiaToBase3" 390 0 basechar 0
AnchorPoint: "DiaToBase2" 390 0 basechar 0
AnchorPoint: "DiaToBase1" 410 0 basechar 0
LayerCount: 2
Back
SplineSet
313 58.6202 m 0
 360.8 23.9984 415.758 12.0156 483.976 12.0156 c 0
 537.994 12.0156 596.8 31.8 636.5 71.5 c 0
 673.37 108.37 700.8 163.998 711.975 223.998 c 0
 734.337 344.069 707.166 449.632 645.8 510.998 c 0
 588.798 568 503.262 600 420.5 600 c 0
 341.743 600 259.517 570.225 205.975 521.521 c 1
89.4971 0.015625 m 1
 121.8 96.9984 137.936 192.189 141.908 300.182 c 0
 145.8 405.998 135.8 501.998 110.45 600.016 c 1
EndSplineSet
Fore
SplineSet
66.2129 -42.4111 m 1
 52.0703 -28.2686 l 1
 84.373 68.7139 100.511 163.905 104.481 271.897 c 0
 108.373 377.714 98.3721 473.713 73.0234 571.731 c 1
 143.734 642.427 l 1
 157.876 628.3 l 1
 168.409 587.573 176.291 547.195 181.629 506.317 c 1
 239.259 563.947 l 1
 292.799 612.649 375.03 642.427 453.784 642.427 c 0
 536.544 642.427 622.082 610.427 679.084 553.425 c 2
 693.226 539.282 l 2
 754.59 477.913 781.763 372.353 759.401 252.282 c 0
 748.229 192.284 720.796 136.654 683.926 99.7832 c 2
 613.215 29.0732 l 2
 573.517 -10.624 514.708 -30.4131 460.691 -30.4111 c 0
 392.476 -30.4092 337.518 -18.4268 289.716 16.1943 c 1
 275.574 30.3359 l 1
 346.284 101.047 l 1
 394.082 66.4229 449.044 54.4443 517.26 54.4414 c 0
 556.089 54.4404 597.992 65.0801 632.049 85.0146 c 1
 652.576 117.774 667.046 155.431 674.549 195.714 c 0
 696.093 311.396 671.427 413.892 614.877 475.905 c 1
 558.016 528.331 476.363 557.571 397.216 557.573 c 0
 319.401 557.573 238.193 528.504 184.62 480.83 c 1
 189.762 431.504 191.273 381.204 189.334 328.466 c 0
 185.363 220.474 169.226 125.282 136.924 28.2998 c 1
 66.2129 -42.4111 l 1
EndSplineSet
Comment: "%DiaToBase1+AD0A-410+AAoA%DiaToBase2+AD0A-390+AAoA%DiaToBase3+AD0A-390+AAoA%DiaToBaseU+AD0A-390+AAoA" 
EndChar

StartChar: afii57679
Encoding: 1503 1503 50
Width: 264
Flags: HMW
AnchorPoint: "DiaToBaseD" 80 0 basechar 0
LayerCount: 2
Back
SplineSet
92.0996 612 m 29
 92.0996 -400 l 25
EndSplineSet
Fore
SplineSet
160.384 654.427 m 5
 174.526 640.284 l 5
 174.525 -371.716 l 1
 103.815 -442.427 l 1
 89.6729 -428.284 l 1
 89.6738 583.716 l 5
 160.384 654.427 l 5
EndSplineSet
EndChar

StartChar: afii57680
Encoding: 1504 1504 51
Width: 507
Flags: HMW
AnchorPoint: "DiaToBaseD" 193 0 basechar 0
AnchorPoint: "DiaToBaseU" 220 0 basechar 0
AnchorPoint: "DiaToBase3" 210 0 basechar 0
AnchorPoint: "DiaToBase2" 205 0 basechar 0
AnchorPoint: "DiaToBase1" 205 0 basechar 0
LayerCount: 2
Back
SplineSet
22.5742 -8.28418 m 1
 93.2842 62.4268 l 1
 344.563 62.4268 l 1
 341.574 65.416 l 1
 341.173 328.716 l 2
 341.031 422 339.616 481.205 303.897 523.211 c 1
 279.343 544.104 243.694 557.572 198.516 557.573 c 0
 138.623 557.575 109.219 544.208 70.0137 513.023 c 1
 55.8711 527.166 l 1
 126.582 597.877 l 1
 165.787 629.062 195.191 642.427 255.084 642.426 c 0
 304.887 642.424 342.61 626.41 367.647 601.449 c 2
 381.935 587.162 l 2
 424.293 544.804 425.875 484.168 426.025 385.284 c 2
 426.426 121.984 l 1
 360.077 55.6343 l 1
 367.427 48.2842 l 1
 296.716 -22.4258 l 1
 36.7158 -22.4258 l 1
 22.5742 -8.28418 l 1
98.2979 555.45 m 0
 137.504 586.635 166.905 600 226.8 600 c 0
 276.604 600 314.328 583.985 339.364 559.022 c 0
 381.858 516.651 383.448 455.994 383.599 357 c 2
 384 93.7002 l 25
65 20 m 25
 325 20 l 25
EndSplineSet
Fore
SplineSet
17.5742 -8.28418 m 1
 88.2842 62.4268 l 1
 339.562 62.4268 l 1
 336.574 65.416 l 1
 336.5 341.5 l 2
 336.418 394.848 335.167 439.167 329.166 471.167 c 0
 324.844 494.216 313.98 512.95 299.715 527.216 c 0
 273.931 553 234.784 561.203 195 561.203 c 0
 144.667 561.203 102.638 542.938 65 513 c 1
 50.8711 527.166 l 1
 121.582 597.877 l 1
 160.787 629.062 190.191 642.427 250.084 642.426 c 0
 306.163 642.424 342.607 623.487 370.5 595.597 c 0
 417.549 548.551 420.861 493.527 421.025 385.284 c 2
 421.426 121.984 l 1
 355.077 55.6348 l 1
 362.427 48.2842 l 1
 291.716 -22.4258 l 1
 31.7158 -22.4258 l 1
 17.5742 -8.28418 l 1
EndSplineSet
Comment: "%DiaToBase1+AD0A-205+AAoA%DiaToBase2+AD0A-205+AAoA%DiaToBase3+AD0A-210+AAoA%DiaToBaseU+AD0A-220+AAoA" 
EndChar

StartChar: afii57681
Encoding: 1505 1505 52
Width: 785
Flags: HMW
AnchorPoint: "DiaToBaseD" 400 0 basechar 0
AnchorPoint: "DiaToBaseO" 100 0 basechar 0
AnchorPoint: "DiaToBaseU" 360 0 basechar 0
AnchorPoint: "DiaToBase3" 400 0 basechar 0
AnchorPoint: "DiaToBase2" 390 0 basechar 0
AnchorPoint: "DiaToBase1" 390 0 basechar 0
LayerCount: 2
Back
SplineSet
150.905 516.538 m 0
 213.672 568.323 297.724 600 390.05 600 c 0
 592 600 712.427 480 712.427 293 c 0
 712.427 127 587 12 390.05 12 c 0
 197 12 91.1182 139.607 91.1182 282 c 0
 91.1182 348.607 122.544 412 173.379 462.835 c 0
EndSplineSet
Fore
SplineSet
103.479 488.254 m 1
 174.189 558.965 l 1
 236.954 610.747 321.011 642.43 413.334 642.427 c 0
 516.319 642.424 598.111 611.221 653.534 555.831 c 0
 667.821 541.544 l 0
 668.198 541.167 667.779 541.586 667.968 541.396 c 0
 668.109 541.255 l 0
 721.087 488.051 749.851 412.67 749.854 321.284 c 0
 749.855 244.185 722.792 178.079 674.076 129.396 c 0
 603.366 58.6855 l 0
 547.195 2.55371 462.238 -30.4258 356.766 -30.4268 c 0
 259.197 -30.4268 183.898 2.16895 133.275 52.792 c 0
 119.134 66.9346 l 0
 69.5918 116.476 43.6914 183.287 43.6914 253.716 c 0
 43.6924 320.322 75.1172 383.715 125.952 434.551 c 0
 196.663 505.262 l 1
 210.806 491.119 l 1
 159.972 440.286 128.542 376.89 128.544 310.284 c 0
 128.546 243.218 152.045 179.412 197.065 130.701 c 1
 247.246 84.3145 320.379 54.4297 413.334 54.4268 c 0
 496.641 54.4238 567.024 74.9258 620.854 111.354 c 1
 649.307 154.042 665.002 206.304 665 264.716 c 0
 664.998 352.216 638.518 425.257 589.816 477.854 c 1
 534.744 528.785 455.369 557.57 356.766 557.574 c 0
 264.442 557.577 180.385 525.895 117.621 474.112 c 1
 103.479 488.254 l 1
EndSplineSet
Comment: "%DiaToBase1+AD0A-390+AAoA%DiaToBase2+AD0A-390+AAoA%DiaToBase3+AD0A-400+AAoA%DiaToBaseO+AD0A-100+AAoA%DiaToBaseU+AD0A-360+AAoA" 
EndChar

StartChar: afii57682
Encoding: 1506 1506 53
Width: 756
Flags: HMW
AnchorPoint: "DiaToBaseD" 410 70 basechar 0
AnchorPoint: "DiaToBaseO" -30 0 basechar 0
LayerCount: 2
Back
SplineSet
702.085 654.426 m 1
 716.227 640.284 l 1
 708.153 498.275 675.914 276.291 605.347 172.284 c 0
 594.938 156.943 583.544 143.215 571.307 130.967 c 0
 500.596 60.2559 l 0
 500.236 59.8955 l 1
 393.086 -46.8359 222.35 -40.6807 85.0674 -8.42676 c 1
 70.9248 5.71582 l 1
 141.636 76.4268 l 1
 263.596 47.7695 411.909 39.7236 518.703 113.105 c 1
 520.494 115.716 l 0
 591.062 219.723 623.301 441.707 631.374 583.716 c 1
 702.085 654.426 l 1
222.36 123.361 m 0
 207.761 137.961 l 0
 95.5811 250.243 62.4531 418.616 50.8818 583.716 c 1
 121.593 654.427 l 1
 135.735 640.284 l 1
 147.049 478.655 179.287 313.603 285.747 201.574 c 1
 310.516 178.03 338.976 157.119 371.685 139.427 c 1
 385.827 125.284 l 1
 315.116 54.5732 l 1
 279.364 73.9131 248.69 97.0957 222.36 123.361 c 0
673.801 612 m 20
 665.736 470 633.481 248 562.921 144 c 12
 461.578 -5.37012 266.569 -2 113.352 34 c 12
93.3086 612 m 20
 107.604 408 154.812 199 343.4 97 c 12
EndSplineSet
Fore
SplineSet
702.085 654.426 m 1
 716.227 640.284 l 1
 708.153 498.275 675.914 276.291 605.347 172.284 c 0
 594.938 156.943 583.544 143.215 571.307 130.967 c 0
 500.596 60.2559 l 0
 500.236 59.8955 l 1
 393.086 -46.8359 222.35 -40.6807 85.0674 -8.42676 c 1
 70.9248 5.71582 l 1
 141.636 76.4268 l 1
 263.596 47.7695 411.909 39.7236 518.703 113.105 c 1
 590.262 217.427 623.199 439.912 631.374 583.716 c 1
 702.085 654.426 l 1
212.761 142.961 m 4
 245.015 110.707 285.221 77.6816 329 54 c 1
 394.711 119.711 l 1
 380.568 133.854 l 1
 347.859 151.546 317.107 168.686 285.747 201.574 c 0
 179.5 313 147.049 478.655 135.735 640.284 c 1
 121.593 654.427 l 1
 55.8818 588.716 l 1
 67.4531 423.616 100.581 255.243 212.761 142.961 c 4
EndSplineSet
Substitution2: "MiscSAlt" uniFB20
Substitution2: "Single Substitution lookup 1 subtable" uniFB20
Comment: "%DiaToBaseO+AD0A--30+AAoA" 
EndChar

StartChar: afii57683
Encoding: 1507 1507 54
Width: 735
Flags: HMW
AnchorPoint: "DiaToBaseD" 426 0 basechar 0
LayerCount: 2
Back
SplineSet
595.716 -442.427 m 1
 581.573 -428.284 l 1
 558.572 -357.285 551.354 -258.92 561.573 -149.284 c 0
 573.97 -16.2881 621.579 113.721 621.574 271.716 c 0
 621.571 350.783 590.558 423.209 540.595 476.61 c 1
 486.726 526.979 414.977 557.571 335.716 557.574 c 0
 269.36 557.576 210.755 541.256 165.633 512.796 c 1
 146.125 480.792 135.425 443.384 135.426 401.797 c 0
 135.428 343.35 157.975 289.812 194.436 249.949 c 1
 234.605 213.207 287.737 190.941 346.284 190.939 c 1
 360.427 176.798 l 1
 289.716 106.087 l 1
 227.617 106.089 171.365 131.286 130.641 172.011 c 0
 116.498 186.153 l 0
 75.7734 226.878 50.5752 283.13 50.5732 345.229 c 0
 50.5713 404.999 72.6641 456.18 111.232 494.886 c 1
 111.462 495.115 l 0
 182.173 565.826 l 0
 230.508 614.139 304.446 642.43 392.284 642.427 c 0
 475.045 642.424 550.009 608.818 604.309 554.551 c 0
 618.451 540.409 l 0
 672.801 486.092 706.424 411.052 706.427 328.284 c 0
 706.432 170.289 658.822 40.2803 646.426 -92.7158 c 0
 636.207 -202.352 643.424 -300.719 666.426 -371.716 c 1
 595.716 -442.427 l 1
624 -400 m 5
 601 -329 593.778 -230.638 604 -121 c 4
 616.4 12 664 142 664 300 c 4
 664 465.463 529.6 600 364 600 c 4
 206 600 93 508.486 93 373.513 c 4
 93 249.312 193.8 148.513 318 148.513 c 4
EndSplineSet
Fore
SplineSet
565.716 -442.427 m 5
 551.573 -428.284 l 5
 528.572 -357.285 521.354 -258.92 531.573 -149.284 c 4
 543.97 -16.2881 603 85 603 248 c 4
 603 353 570.558 423.209 520.595 476.61 c 5
 466.726 526.979 394.977 557.571 315.716 557.574 c 4
 249.36 557.576 190.755 541.256 145.633 512.796 c 5
 126.125 480.792 115.425 443.384 115.426 401.797 c 4
 115.428 343.35 136.667 289.718 175.436 250.949 c 4
 212.718 213.667 267.737 190.941 326.284 190.939 c 5
 340.427 176.798 l 5
 269.716 106.087 l 5
 202.135 106.089 145.403 135.251 102.667 177.984 c 4
 59.8848 220.764 30.5752 277.492 30.5732 345.229 c 4
 30.5713 404.999 52.6641 456.18 91.2324 494.886 c 5
 91.4619 495.115 l 4
 162.173 565.826 l 4
 210.508 614.139 284.446 642.43 372.284 642.427 c 4
 455.045 642.424 530.009 608.818 584.309 554.551 c 4
 598.451 540.409 l 4
 652.801 486.092 686.424 411.052 686.427 328.284 c 4
 686.432 170.289 623.396 49.9961 611 -83 c 4
 600.781 -192.636 613.424 -300.719 636.426 -371.716 c 5
 565.716 -442.427 l 5
EndSplineSet
EndChar

StartChar: afii57684
Encoding: 1508 1508 55
Width: 757
Flags: HMW
AnchorPoint: "DiaToBaseD" 484 0 basechar 0
AnchorPoint: "DiaToBaseO" 100 0 basechar 0
AnchorPoint: "DiaToBaseU" 360 0 basechar 0
AnchorPoint: "DiaToBase3" 380 0 basechar 0
AnchorPoint: "DiaToBase2" 360 0 basechar 0
AnchorPoint: "DiaToBase1" 375 0 basechar 0
LayerCount: 2
Back
SplineSet
332.866 261.237 m 1
 262.155 190.527 l 1
 191.604 190.528 127.933 215.729 87.8867 255.145 c 0
 87.668 255.359 87.4512 255.575 87.2344 255.791 c 0
 73.0918 269.934 l 0
 72.6807 270.345 73.0762 269.948 73.0762 269.948 c 1
 72.7686 270.258 l 0
 46.1045 297.077 33.5625 333.583 33.5615 369.795 c 0
 33.5605 416.815 50.7588 456.832 85.3027 491.414 c 0
 156.014 562.124 l 0
 156.521 562.631 l 1
 157.117 563.223 157.03 563.137 157.359 563.46 c 0
 211.171 616.424 291.756 642.429 379.463 642.427 c 0
 474.363 642.424 554.775 608.158 610.521 552.445 c 0
 624.812 538.154 l 0
 625.374 537.593 624.689 538.277 624.689 538.277 c 1
 625.11 537.855 l 0
 677.553 485.221 708.028 413.535 708.03 333.572 c 0
 708.033 255.815 677.278 186.549 625.61 134.884 c 0
 554.899 64.1729 l 0
 496.265 5.54102 410.688 -30.4268 312.54 -30.4277 c 0
 213.01 -30.4287 123.564 7.66504 62.1426 68.1201 c 0
 48.001 82.2617 l 0
 32.5 98.2627 l 1
 103.211 168.973 l 1
 117.353 154.831 l 0
 124.852 147.091 l 1
 185.791 90.2832 272.923 54.4287 369.108 54.4248 c 0
 447.433 54.4229 517.671 77.2812 572.81 116.417 c 1
 604.733 161.936 623.18 216.974 623.178 277.004 c 0
 623.176 353.596 595.274 422.498 546.809 474.49 c 1
 491.753 525.843 413.722 557.57 322.895 557.573 c 0
 254.687 557.576 190.723 541.814 140.458 509.96 c 1
 126.05 485.242 118.413 457.142 118.414 426.363 c 0
 118.415 393.064 129.119 359.33 151.535 333.394 c 1
 191.645 297.953 252.24 275.381 318.724 275.38 c 1
 332.866 261.237 l 1
290.439 232.953 m 1
 219.886 232.953 156.218 258.156 116.171 297.571 c 0
 88.8359 324.476 75.9883 361.428 75.9883 398.079 c 0
 75.9883 445.708 93.6299 486.147 129.075 521.034 c 0
 182.889 574 263.469 600 351.179 600 c 0
 535.82 600 665.604 470.288 665.604 305.288 c 0
 665.604 139.288 525.461 12 340.824 11.999 c 0
 241.295 11.999 151.849 50.0918 90.4268 110.546 c 1
 74.9268 126.547 l 1
EndSplineSet
Fore
SplineSet
347.866 261.237 m 1
 277.155 190.527 l 1
 200.082 190.528 136.814 219.21 94.3594 261.667 c 0
 65.915 290.105 48.5625 327.798 48.5615 369.795 c 0
 48.5605 416.815 65.7588 456.832 100.303 491.414 c 0
 171.014 562.124 l 0
 171.521 562.631 l 1
 172.117 563.223 172.03 563.137 172.359 563.46 c 0
 226.171 616.424 306.756 642.429 394.463 642.427 c 0
 489.363 642.424 569.775 608.158 625.521 552.445 c 0
 639.812 538.154 l 0
 640.374 537.593 639.689 538.277 639.689 538.277 c 1
 640.11 537.855 l 0
 692.553 485.221 723.028 413.535 723.03 333.572 c 0
 723.033 255.815 692.278 186.549 640.61 134.884 c 0
 569.899 64.1729 l 0
 511.265 5.54102 425.688 -30.4268 327.54 -30.4277 c 0
 228.01 -30.4287 138.564 7.66504 77.1426 68.1201 c 0
 63.001 82.2617 l 0
 47.5 98.2627 l 1
 118.211 168.973 l 1
 132.353 154.831 l 0
 139.852 147.091 l 1
 200.791 90.2832 287.923 54.4287 384.108 54.4248 c 0
 462.433 54.4229 532.671 77.2812 587.81 116.417 c 1
 619.733 161.936 638.18 216.974 638.178 277.004 c 0
 638.176 353.596 610.274 422.498 561.809 474.49 c 1
 506.753 525.843 428.722 557.57 337.895 557.573 c 0
 269.688 557.576 205.723 541.814 155.458 509.96 c 1
 141.05 485.242 133.413 457.142 133.414 426.363 c 0
 133.415 393.064 143.333 358.595 167.535 334.394 c 0
 204.929 297 270.333 275.38 333.724 275.38 c 1
 347.866 261.237 l 1
EndSplineSet
Comment: "%DiaToBase1+AD0A-375+AAoA%DiaToBase2+AD0A-360+AAoA%DiaToBase3+AD0A-380+AAoA%DiaToBaseO+AD0A-100+AAoA%DiaToBaseU+AD0A-360+AAoA" 
EndChar

StartChar: afii57685
Encoding: 1509 1509 56
Width: 709
Flags: HMW
AnchorPoint: "DiaToBaseD" 378 113 basechar 0
LayerCount: 2
Back
SplineSet
120.784 648.426 m 1
 134.927 634.284 l 1
 164.918 494.277 254.36 350.062 340.927 256.284 c 0
 382.478 211.272 422.364 163.928 456.74 112.427 c 1
 573.067 258.887 632.487 444.967 568.073 577.716 c 1
 638.784 648.426 l 1
 652.927 634.284 l 1
 718.921 498.277 654.929 306.289 532.927 158.284 c 1
 468.668 94.0256 l 1
 546.197 -29.2463 590.862 -176.619 552.927 -371.716 c 1
 482.216 -442.426 l 1
 468.074 -428.283 l 1
 524.072 -140.286 400.077 43.7188 256.074 199.716 c 0
 169.507 293.493 80.0781 437.721 50.0732 577.716 c 1
 120.784 648.426 l 1
610.5 606 m 20
 676.5 470 612.5 278 490.5 130 c 12
92.5 606 m 20
 122.5 466 211.935 321.779 298.5 228 c 4
 442.5 72 566.5 -112 510.5 -400 c 13
EndSplineSet
Fore
SplineSet
90.7842 648.426 m 1
 104.927 634.284 l 1
 134.918 494.277 224.36 350.062 310.927 256.284 c 0
 352.478 211.272 392.363 163.928 426.74 112.427 c 1
 543.067 258.887 587.487 429.967 523.073 562.716 c 1
 608.784 648.426 l 1
 622.927 634.284 l 1
 688.921 498.277 624.929 306.289 502.927 158.284 c 1
 438.668 94.0254 l 1
 516.197 -29.2461 560.862 -176.619 522.927 -371.716 c 1
 460.216 -434.426 l 1
 446.074 -420.283 l 1
 502.072 -132.286 378.077 51.7188 234.074 207.716 c 0
 147.507 301.493 58.0781 445.721 28.0732 585.716 c 1
 90.7842 648.426 l 1
EndSplineSet
EndChar

StartChar: afii57686
Encoding: 1510 1510 57
Width: 740
Flags: HMW
AnchorPoint: "DiaToBaseD" 271 -148 basechar 0
AnchorPoint: "DiaToBaseO" -40 0 basechar 0
AnchorPoint: "DiaToBaseU" 360 0 basechar 0
AnchorPoint: "DiaToBase3" 355 0 basechar 0
AnchorPoint: "DiaToBase2" 345 0 basechar 0
AnchorPoint: "DiaToBase1" 350 0 basechar 0
LayerCount: 2
Back
SplineSet
183.823 319.703 m 1
 169.539 333.988 l 2
 108.226 395.357 70.6533 479.312 49.5732 577.716 c 1
 120.284 648.427 l 1
 134.427 634.284 l 1
 154.693 539.676 190.509 458.049 247.523 397.63 c 0
 248.146 397.042 248.35 396.853 248.805 396.428 c 0
 301.289 347.432 376.289 306.433 455.617 285.427 c 0
 473.86 280.596 493.248 276.104 511.822 271.987 c 1
 582.701 362.797 622.327 481.395 589.574 577.716 c 1
 660.284 648.427 l 1
 674.427 634.284 l 1
 708.43 534.288 664.424 410.282 588.427 318.284 c 1
 536.7 266.558 l 1
 557.283 262.094 l 2
 600.33 252.661 634.026 239.886 656.621 217.319 c 2
 670.959 202.981 l 2
 672.4 201.53 673.508 200.353 674.76 198.951 c 0
 708.771 160.87 707.417 104.932 675.466 72.9814 c 2
 604.755 2.27051 l 2
 589.706 -12.7383 567.865 -22.4258 539.716 -22.4258 c 2
 63.7158 -22.4258 l 1
 49.5732 -8.28418 l 1
 120.284 62.4268 l 1
 596.284 62.4268 l 2
 602.531 62.4268 608.251 62.877 614.015 63.7979 c 1
 617.722 88.7227 610.977 116.857 592.612 139.225 c 1
 570.369 157.577 539.256 168.799 500.715 177.24 c 0
 471.38 183.665 433.212 191.532 399.049 200.573 c 0
 319.713 221.571 244.718 262.577 192.236 311.574 c 0
 189.481 314.146 186.779 316.767 184.108 319.419 c 2
 183.967 319.56 l 1
 183.823 319.703 l 1
632 606 m 16
 666 506 622 382 546 290 c 8
92 606 m 16
 114.049 503.105 154.12 415.998 220.52 354.001 c 0
 273 305.001 348 264 427.333 243 c 0
 461.495 233.957 499.664 226.091 528.999 219.667 c 0
 574.667 209.667 609.807 195.896 632.333 170.667 c 0
 682.333 114.667 656 20 568 20 c 2
 92 20 l 9
EndSplineSet
Fore
SplineSet
597.443 62.4238 m 1
 614.429 78.959 620.741 98.7744 613.666 120 c 4
 603 152.001 564 168.001 491.715 183.24 c 4
 462.33 189.435 424.212 197.532 390.049 206.573 c 4
 310.713 227.571 235.333 268.667 183.236 317.574 c 4
 110.771 385.603 65.0459 469.475 40.5732 583.716 c 5
 105.284 648.427 l 1
 119.427 634.284 l 1
 139.693 539.676 163.262 471.916 234.666 398.667 c 0
 298.643 333.037 360.525 306.635 440.617 285.427 c 0
 458.86 280.596 478.248 276.104 496.822 271.987 c 1
 567.701 362.797 592.327 466.395 559.574 562.716 c 1
 645.284 648.427 l 1
 659.427 634.284 l 1
 693.43 534.288 649.424 410.282 573.427 318.284 c 1
 521.7 266.558 l 1
 542.283 262.094 l 2
 591.753 251.254 625.481 235.852 651.999 209.333 c 0
 687.631 173.701 700.69 113.205 660.466 72.9814 c 2
 589.755 2.27051 l 2
 574.706 -12.7383 552.865 -22.4258 524.716 -22.4258 c 2
 48.7158 -22.4258 l 1
 34.5732 -8.28418 l 1
 105.284 62.4268 l 1
 597.443 62.4238 l 1
EndSplineSet
Comment: "%DiaToBase1+AD0A-350+AAoA%DiaToBase2+AD0A-345+AAoA%DiaToBase3+AD0A-355+AAoA%DiaToBaseO+AD0A--40+AAoA%DiaToBaseU+AD0A-360+AAoA" 
EndChar

StartChar: afii57687
Encoding: 1511 1511 58
Width: 795
Flags: HMW
AnchorPoint: "DiaToBaseD" 415 0 basechar 0
AnchorPoint: "DiaToBaseO" 110 0 basechar 0
AnchorPoint: "DiaToBaseU" 500 0 basechar 0
AnchorPoint: "DiaToBase3" 550 0 basechar 0
AnchorPoint: "DiaToBase2" 470 0 basechar 0
AnchorPoint: "DiaToBase1" 420 0 basechar 0
LayerCount: 2
Back
SplineSet
224.716 -387.711 m 1
 224.716 212.289 l 1
92.916 308.577 m 1
 92.916 391.377 133.363 464.373 189.666 520.676 c 0
 238.99 570 312 600 412.551 600.149 c 0
 513 600.298 588.208 574.131 647.222 520.676 c 0
 712 462 732.455 391.8 732.455 309 c 0
 732.455 222 701.524 153 644.999 96.4746 c 0
 590.524 41.9998 503.714 8.57422 414.913 8.57422 c 1
EndSplineSet
Fore
SplineSet
171.432 -430.138 m 1
 157.289 -415.995 l 1
 157.289 184.005 l 1
 228 254.715 l 1
 242.142 240.573 l 1
 242.143 -359.427 l 1
 171.432 -430.138 l 1
39.6318 266.15 m 1
 25.4893 280.293 l 1
 25.4902 363.094 65.9365 436.088 122.24 492.392 c 0
 192.95 563.104 l 0
 193.311 563.462 l 1
 242.869 612.733 315.621 642.432 415.835 642.575 c 0
 516.28 642.719 591.491 616.557 650.506 563.104 c 0
 654.057 559.886 657.476 556.635 660.764 553.349 c 0
 675.076 539.036 l 0
 675.491 538.621 675.053 539.06 675.26 538.852 c 1
 675.415 538.696 l 0
 731.72 482.15 749.879 415.308 749.882 337.284 c 0
 749.884 250.287 718.949 181.282 662.426 124.759 c 0
 591.715 54.0479 l 0
 537.239 -0.427734 450.431 -33.8516 361.629 -33.8516 c 1
 347.487 -19.71 l 1
 418.197 51.001 l 1
 489.414 50.999 559.35 72.4971 612.36 109.117 c 1
 646.229 156.722 665.03 213.51 665.028 280.716 c 0
 665.026 355.775 648.47 420.022 597.024 475.413 c 1
 596.365 476.027 594.92 477.359 593.938 478.249 c 0
 534.922 531.704 459.711 557.866 359.267 557.723 c 0
 279.642 557.608 217.484 538.889 170.173 506.358 c 1
 134.529 458.452 110.341 400.301 110.343 336.861 c 1
 39.6318 266.15 l 1
EndSplineSet
Comment: "%DiaToBase1+AD0A-420+AAoA%DiaToBase2+AD0A-470+AAoA%DiaToBase3+AD0A-550+AAoA%DiaToBaseO+AD0A-110+AAoA%DiaToBaseU+AD0A-500+AAoA" 
EndChar

StartChar: afii57688
Encoding: 1512 1512 59
Width: 758
Flags: HMW
AnchorPoint: "DiaToBaseD" 356 0 basechar 0
AnchorPoint: "DiaToBaseO" 100 0 basechar 0
AnchorPoint: "DiaToBaseU" 470 0 basechar 0
AnchorPoint: "DiaToBase3" 450 0 basechar 0
AnchorPoint: "DiaToBase2" 490 0 basechar 0
AnchorPoint: "DiaToBase1" 510 0 basechar 0
LayerCount: 2
Back
SplineSet
64.3828 317.573 m 1
 50.2402 331.716 l 1
 62.1738 390.434 91.2773 442.94 132.071 483.757 c 0
 202.782 554.468 l 0
 203.087 554.772 l 1
 257.537 609.047 332.315 642.429 414.941 642.426 c 0
 497.7 642.424 572.674 608.86 626.966 554.603 c 0
 641.562 540.004 l 0
 695.637 485.731 729.081 410.89 729.084 328.284 c 0
 729.088 194.289 691.282 106.282 642.982 28.2842 c 1
 572.271 -42.4268 l 1
 558.13 -28.2842 l 1
 606.43 49.7139 644.234 137.721 644.23 271.715 c 0
 644.229 350.907 613.463 423.029 563.284 476.627 c 1
 509.988 526.522 437.462 557.571 358.373 557.573 c 0
 293.604 557.575 233.564 536.987 184.575 502.082 c 1
 160.915 468.837 143.586 430.069 135.094 388.284 c 1
 64.3828 317.573 l 1
92.667 360 m 4
 120.486 496.881 241.603 600 386.657 600 c 4
 552.257 600 686.657 465.6 686.657 300 c 4
 686.657 166 648.856 78 600.557 0 c 4
EndSplineSet
Fore
SplineSet
39.3828 317.572 m 1
 25.2402 331.716 l 1
 37.1738 390.434 66.2773 442.94 107.071 483.757 c 0
 177.782 554.468 l 0
 178.087 554.771 l 1
 232.537 609.047 307.315 642.429 389.941 642.426 c 0
 472.7 642.424 547.674 608.86 601.966 554.604 c 0
 616.562 540.004 l 0
 670.637 485.731 704.084 411 704.084 322 c 0
 704.084 195 666.282 106.282 617.982 28.2842 c 1
 547.271 -42.4268 l 1
 533.13 -28.2842 l 1
 582 53.5 619.23 149.5 619.23 271.715 c 0
 619.23 350.907 588.463 423.029 538.284 476.627 c 1
 484.988 526.521 412.462 557.571 333.373 557.573 c 0
 268.604 557.575 208.564 536.987 159.575 502.082 c 1
 135.915 468.837 118.586 430.069 110.094 388.284 c 1
 39.3828 317.572 l 1
EndSplineSet
Substitution2: "WideLetters" uniFB27
Comment: "%DiaToBase1+AD0A-510+AAoA%DiaToBase2+AD0A-490+AAoA%DiaToBase3+AD0A-450+AAoA%DiaToBaseO+AD0A-100+AAoA%DiaToBaseU+AD0A-470+AAoA" 
EndChar

StartChar: afii57689
Encoding: 1513 1513 60
Width: 948
Flags: HMW
AnchorPoint: "DiaToBaseD" 663 0 basechar 0
AnchorPoint: "DiaToBaseU" 450 0 basechar 0
AnchorPoint: "DiaToBase3" 470 0 basechar 0
AnchorPoint: "DiaToBase2" 485 0 basechar 0
AnchorPoint: "DiaToBase1" 470 0 basechar 0
LayerCount: 2
Back
SplineSet
442.5 606 m 20
 514.5 476 518.5 320 442.5 200 c 12
824.004 606 m 4
 857.388 548.331 876.5 478.384 876.5 407 c 4
 876.5 190.616 700.884 12 484.5 12 c 4
 268.116 12 92.5 190.616 92.5 407 c 4
 92.5 478.384 111.612 548.331 144.996 606 c 4
EndSplineSet
Fore
SplineSet
460.784 648.427 m 1
 474.927 634.284 l 1
 546.936 504.295 550.923 348.279 474.927 228.284 c 1
 404.216 157.574 l 1
 390.074 171.716 l 1
 466.07 291.711 462.083 447.727 390.072 577.716 c 1
 460.784 648.427 l 1
842.288 648.426 m 1
 856.43 634.284 l 1
 889.824 576.626 908.924 506.665 908.926 435.284 c 0
 908.93 326.359 864.421 226.997 792.618 155.181 c 0
 721.908 84.4697 l 0
 721.649 84.2119 l 1
 650.691 13.4121 553.498 -30.4297 446.216 -30.4268 c 0
 338.795 -30.4238 241.418 13.5967 170.588 84.4062 c 0
 155.99 99.0049 l 0
 84.4121 170.79 40.0771 269.988 40.0742 378.716 c 0
 40.0713 450.098 59.1855 520.047 92.5693 577.716 c 1
 163.28 648.426 l 1
 177.423 634.284 l 1
 144.04 576.616 124.925 506.666 124.927 435.284 c 0
 124.93 329.896 166.509 233.584 234.278 162.313 c 1
 304.386 95.6904 398.946 54.4297 502.784 54.4258 c 0
 592.314 54.4229 674.869 85.0068 740.892 136.188 c 1
 792.766 203.071 824.076 287.601 824.073 378.716 c 0
 824.071 450.098 804.957 520.043 771.577 577.716 c 1
 842.288 648.426 l 1
EndSplineSet
Comment: "%DiaToBase1+AD0A-470+AAoA%DiaToBase2+AD0A-485+AAoA%DiaToBase3+AD0A-470+AAoA%DiaToBaseU+AD0A-450+AAoA" 
EndChar

StartChar: numbersign
Encoding: 35 35 61
Width: 934
VWidth: 0
Flags: W
HStem: 114.573 77.854<158.711 766.143> 407.573 77.854<158.711 766.143>
VStem: 252 77.854<21.2842 578.716> 595 77.854<21.2842 578.716>
LayerCount: 2
Back
SplineSet
128.284 192.427 m 1
 778.284 192.427 l 1
 792.427 178.284 l 1
 721.716 107.573 l 1
 71.7158 107.573 l 1
 57.5732 121.716 l 1
 128.284 192.427 l 1
721.716 407.573 m 1
 71.7158 407.573 l 1
 57.5732 421.716 l 1
 128.284 492.427 l 5
 778.284 492.427 l 5
 792.427 478.284 l 5
 721.716 407.573 l 1
557.573 -28.2842 m 1
 557.573 571.716 l 1
 628.284 642.427 l 1
 642.427 628.284 l 1
 642.427 28.2842 l 1
 571.716 -42.4268 l 1
 557.573 -28.2842 l 1
292.427 628.284 m 1
 292.427 28.2842 l 1
 221.716 -42.4268 l 1
 207.573 -28.2842 l 1
 207.573 571.716 l 1
 278.284 642.427 l 1
 292.427 628.284 l 1
EndSplineSet
Fore
SplineSet
158.711 192.427 m 1
 815.711 192.427 l 1
 829.854 178.284 l 1
 766.143 114.573 l 1
 109.143 114.573 l 1
 95 128.716 l 1
 158.711 192.427 l 1
766.143 407.573 m 1
 109.143 407.573 l 1
 95 421.716 l 1
 158.711 485.427 l 1
 815.711 485.427 l 1
 829.854 471.284 l 1
 766.143 407.573 l 1
595 -28.2842 m 1
 595 578.716 l 1
 658.711 642.427 l 1
 672.854 628.284 l 1
 672.854 21.2842 l 1
 609.143 -42.4268 l 1
 595 -28.2842 l 1
329.854 628.284 m 1
 329.854 21.2842 l 1
 266.143 -42.4268 l 1
 252 -28.2842 l 1
 252 578.716 l 1
 315.711 642.427 l 1
 329.854 628.284 l 1
EndSplineSet
EndChar

StartChar: dollar
Encoding: 36 36 62
Width: 819
VWidth: 0
Flags: W
HStem: -25.665 84.1289<286.549 383.163 451.046 537.227> 554.695 78.104<287.906 383.163 451.046 538.928>
VStem: 122.398 74.611<417.838 493.339> 383.163 67.883<-97.373 -25.665 58.4639 265.725 357.729 550.824 635.059 697.373> 642.699 74.61<121.571 201.302>
LayerCount: 2
Back
SplineSet
424.732 753.941 m 1
 436.046 742.627 l 1
 436.046 -97.373 l 1
 379.478 -153.941 l 1
 368.163 -142.627 l 1
 368.163 697.373 l 1
 424.732 753.941 l 1
704.209 549.846 m 1
 637.034 482.67 l 1
 552.329 534.267 465.433 554.692 363.134 554.695 c 0
 303.651 554.697 239.089 543.127 191.891 518.655 c 1
 187.318 506.988 185.009 494.985 185.009 481.584 c 0
 185.01 456.469 193.344 435.868 207.272 419.295 c 1
 255.649 378.07 345.196 363.622 424.574 352.797 c 0
 516.115 340.312 613.873 323.335 661.819 275.447 c 0
 675.459 261.808 l 1
 694.336 242.839 705.309 219.414 705.309 189.398 c 0
 705.311 157.323 692.592 131.042 671.524 110.008 c 0
 604.35 42.833 l 0
 556.337 -5.10547 464.946 -25.8027 381.834 -25.8037 c 0
 272.934 -25.8047 192.635 -0.00390625 113.435 49.6602 c 1
 100 63.0957 l 1
 167.175 130.271 l 1
 246.375 80.6064 326.678 54.8096 435.574 54.8066 c 0
 498.563 54.8047 566.1 66.6084 616.362 93.3438 c 1
 621.533 105.594 624.699 120.216 624.699 135.658 c 0
 624.698 162.246 616.211 183.43 601.043 201.345 c 1
 551.324 244.039 458.032 260.285 370.834 272.187 c 0
 287.457 283.565 193.113 298.803 146.585 345.076 c 1
 132.938 358.723 l 0
 115.059 376.624 104.399 399.145 104.398 427.844 c 0
 104.397 457.607 116.334 482.182 136.134 501.984 c 0
 203.31 569.159 l 0
 249.156 615.013 337.182 635.309 416.874 635.306 c 0
 519.172 635.303 606.069 614.877 690.774 563.28 c 1
 704.209 549.846 l 1
378.95 720 m 24
 378.95 440 378.95 160 378.95 -120 c 24
640.75 522.976 m 4
 556.05 574.576 469.15 595.001 366.85 595.001 c 0
 252.738 595.001 121.55 553.398 121.55 454.714 c 0
 121.55 351.718 258.833 328.284 374.55 312.491 c 0
 502.15 295.076 641.85 268.954 641.85 162.528 c 0
 641.85 57.3516 505.131 14.501 385.55 14.501 c 0
 276.65 14.501 196.35 40.3008 117.15 89.9658 c 0
EndSplineSet
Fore
SplineSet
719.209 549.846 m 1
 652.034 482.67 l 1
 588.171 521.571 523.062 542.754 451.046 550.824 c 1
 451.046 347.788 l 1
 538.25 335.442 628.393 317.819 673.819 272.447 c 2
 687.459 258.808 l 2
 706.336 239.839 717.309 216.414 717.309 186.398 c 0
 717.311 154.323 704.592 128.042 683.524 107.008 c 2
 619.35 42.833 l 2
 581.654 5.19531 517.22 -15.6504 451.046 -22.8711 c 1
 451.046 -97.373 l 1
 394.478 -153.941 l 1
 383.163 -142.627 l 1
 383.163 -25.665 l 1
 281.141 -23.5791 204.284 2.09766 128.435 49.6602 c 1
 115 63.0957 l 1
 182.175 130.271 l 1
 244.113 91.4307 306.727 67.1885 383.163 58.4639 c 1
 383.163 275.965 l 1
 301.216 287.271 210.062 302.849 164.585 348.076 c 2
 150.938 361.723 l 2
 133.059 379.624 122.399 402.145 122.398 430.844 c 0
 122.397 460.607 134.334 485.182 154.134 504.984 c 2
 218.31 569.159 l 2
 254.931 605.785 318.463 626.105 383.163 632.799 c 1
 383.163 697.373 l 1
 439.732 753.941 l 1
 451.046 742.627 l 1
 451.046 635.059 l 1
 545.122 632.603 626.411 611.623 705.774 563.28 c 1
 719.209 549.846 l 1
383.163 554.679 m 1
 381.491 554.689 379.814 554.695 378.134 554.695 c 0
 318.651 554.697 254.089 543.127 206.891 518.655 c 1
 201 506 197.009 491.985 197.009 478.584 c 0
 197.01 453.469 205.344 432.868 219.272 416.295 c 1
 256.988 384.155 319.728 368.291 383.163 357.729 c 1
 383.163 554.679 l 1
451.046 54.8066 m 1
 513.9 54.8633 581.225 66.6748 631.362 93.3438 c 1
 638.5 108 642.699 123.216 642.699 138.658 c 0
 642.698 165.246 634.211 186.43 619.043 204.345 c 1
 581.079 236.945 517.709 254.125 451.046 265.725 c 1
 451.046 54.8066 l 1
EndSplineSet
EndChar

StartChar: sterling
Encoding: 163 163 63
Width: 831
Flags: W
HStem: -27.2129 84.8525<474.43 664.916> 278.919 81.639<222.062 437.91> 557.573 84.854<355.432 571.678>
LayerCount: 2
Back
SplineSet
107.4 309.556 m 21
 228.601 325.93 341.4 325.93 469.801 309.556 c 13
689.431 537.362 m 4
 620.617 579.981 549.4 600 449.4 600 c 4
 263.991 600 183.887 482.45 175.539 363.161 c 4
 169.4 275.442 183.4 192.598 222.4 126.322 c 13
 149.601 15.2129 l 21
 331.4 42.5029 500.601 42.5029 693.2 15.2129 c 13
EndSplineSet
Fore
SplineSet
731.857 565.646 m 1
 661.146 494.936 l 1
 592.34 537.562 521.113 557.57 421.116 557.573 c 0
 352.597 557.576 298.201 541.304 257.177 515.362 c 1
 233.494 477.924 221.002 434.833 217.966 391.445 c 0
 217.24 381.075 216.796 370.773 216.641 360.558 c 1
 308.53 367.521 398.623 364.66 498.085 351.981 c 1
 512.227 337.84 l 1
 441.517 267.129 l 1
 364.479 276.956 293.055 280.885 222.062 278.919 c 1
 229.104 233.682 243.078 191.568 264.826 154.606 c 1
 203.721 61.3447 l 1
 376.23 84.9053 537.999 83.6299 721.484 57.6396 c 1
 735.627 43.4971 l 1
 664.916 -27.2129 l 1
 472.309 0.0693359 303.115 0.0751953 121.316 -27.2129 c 1
 107.174 -13.0713 l 1
 179.974 98.0381 l 1
 150.244 148.556 135.043 208.704 132.215 273.3 c 1
 114.646 271.598 96.9724 269.541 79.1162 267.129 c 1
 64.9736 281.271 l 1
 134.68 350.977 l 1
 141.432 404.991 163.275 457.532 203.563 497.948 c 2
 203.804 498.188 l 1
 274.515 568.899 l 2
 318.759 613.106 385.093 642.43 477.685 642.427 c 0
 577.682 642.423 648.909 622.415 717.715 579.789 c 1
 731.857 565.646 l 1
EndSplineSet
EndChar

StartChar: afii57793
Encoding: 1460 1460 64
Width: 0
Flags: HW
HStem: -221.422 141.422
VStem: -70.7109 141.422
AnchorPoint: "DiaToBase1" 0 0 mark 0
LayerCount: 2
Back
SplineSet
0 -211.422 m 5
 -70.7109 -140.711 l 5
 0 -70 l 5
 70.7109 -140.711 l 5
 0 -211.422 l 5
EndSplineSet
Fore
SplineSet
0 -221.422 m 5
 -70.7109 -150.711 l 5
 0 -80 l 5
 70.7109 -150.711 l 5
 0 -221.422 l 5
EndSplineSet
EndChar

StartChar: afii57799
Encoding: 1456 1456 65
Width: 0
Flags: HW
HStem: -401.375 321.375
VStem: -70.71 141.422
AnchorPoint: "DiaToBase1" 0 0 mark 0
LayerCount: 2
Back
SplineSet
0 -430.564 m 1
 -77.7822 -352.782 l 1
 0 -275 l 1
 77.7822 -352.782 l 1
 0 -430.564 l 1
0 -225.564 m 1
 -77.7822 -147.782 l 1
 0 -70 l 1
 77.7822 -147.782 l 1
 0 -225.564 l 1
EndSplineSet
Fore
SplineSet
0.000976562 -401.375 m 5
 -70.71 -330.664 l 5
 0.000976562 -259.953 l 5
 70.7119 -330.664 l 5
 0.000976562 -401.375 l 5
-0.000976562 -221.422 m 1
 -70.7119 -150.711 l 1
 -0.000976562 -80 l 1
 70.71 -150.711 l 1
 -0.000976562 -221.422 l 1
EndSplineSet
EndChar

StartChar: afii57794
Encoding: 1461 1461 66
Width: 0
Flags: HW
HStem: -221.422 141.422
AnchorPoint: "DiaToBase2" 0 0 mark 0
LayerCount: 2
Back
SplineSet
115 -225.564 m 5
 37.2178 -147.782 l 5
 115 -70 l 5
 192.782 -147.782 l 5
 115 -225.564 l 5
-115 -225.564 m 1
 -192.782 -147.782 l 1
 -115 -70 l 1
 -37.2178 -147.782 l 1
 -115 -225.564 l 1
EndSplineSet
Fore
SplineSet
-104.789 -221.422 m 1
 -175.5 -150.711 l 1
 -104.789 -80 l 1
 -34.0781 -150.711 l 1
 -104.789 -221.422 l 1
104.789 -221.422 m 5
 34.0781 -150.711 l 5
 104.789 -80 l 5
 175.5 -150.711 l 5
 104.789 -221.422 l 5
EndSplineSet
EndChar

StartChar: afii57801
Encoding: 1457 1457 67
Width: 0
Flags: HW
HStem: -401.375 321.375
AnchorPoint: "DiaToBase3" 0 0 mark 0
LayerCount: 2
Fore
SplineSet
-106.356 -386.211 m 1
 -177.067 -315.5 l 1
 -106.356 -244.789 l 1
 -35.6455 -315.5 l 1
 -106.356 -386.211 l 1
-201.146 -221.422 m 1
 -271.856 -150.711 l 1
 -201.146 -80 l 1
 -130.435 -150.711 l 1
 -201.146 -221.422 l 1
-11.5674 -221.422 m 1
 -82.2783 -150.711 l 1
 -11.5674 -80 l 1
 59.1436 -150.711 l 1
 -11.5674 -221.422 l 1
201.146 -391.375 m 1
 130.435 -320.664 l 1
 201.146 -249.953 l 1
 271.856 -320.664 l 1
 201.146 -391.375 l 1
201.144 -221.422 m 1
 130.433 -150.711 l 1
 201.144 -80 l 1
 271.854 -150.711 l 1
 201.144 -221.422 l 1
EndSplineSet
Comment: "%DiaToBase1+AD0A-0+AAoA%DiaToBase2+AD0A-0+AAoA%DiaToBase3+AD0A-0+AAoA%DiaToBaseO+AD0A-0+AAoA%DiaToBaseU+AD0A-0+AAoA" 
EndChar

StartChar: afii57800
Encoding: 1458 1458 68
Width: 0
Flags: HW
HStem: -166.724 67.8832<-267.045 -122.928 -82.9473 33.2656>
VStem: -150.83 67.8827<-331.373 -194.627>
AnchorPoint: "DiaToBase3" 0 0 mark 0
LayerCount: 2
Back
SplineSet
62.2656 -159 m 1
 -323.299 -159 l 1
 -334.613 -147.686 l 1
 -278.045 -91.1172 l 1
 107.52 -91.1172 l 5
 118.834 -102.432 l 1
 62.2656 -159 l 1
263.902 -416.375 m 1
 193.191 -345.664 l 1
 263.902 -274.953 l 1
 334.613 -345.664 l 1
 263.902 -416.375 l 1
263.9 -211.422 m 1
 193.189 -140.711 l 1
 263.9 -70 l 1
 334.611 -140.711 l 1
 263.9 -211.422 l 1
EndSplineSet
Fore
SplineSet
212.902 -401.375 m 1
 142.191 -330.664 l 1
 212.902 -259.953 l 1
 283.613 -330.664 l 1
 212.902 -401.375 l 1
212.9 -221.422 m 1
 142.189 -150.711 l 1
 212.9 -80 l 1
 283.611 -150.711 l 1
 212.9 -221.422 l 1
33.2656 -166.724 m 1
 89.834 -110.155 l 1
 78.5195 -98.8408 l 1
 -227.045 -98.8408 l 1
 -283.613 -155.409 l 1
 -272.299 -166.724 l 1
 -170.444 -166.724 -68.5892 -166.724 33.2656 -166.724 c 1
EndSplineSet
EndChar

StartChar: afii57802
Encoding: 1459 1459 69
Width: 0
Flags: HW
HStem: -166.724 67.8832<-267.045 -122.928 -82.9473 33.2656>
VStem: -150.83 67.8827<-331.373 -194.627>
AnchorPoint: "DiaToBase3" 0 0 mark 0
LayerCount: 2
Fore
SplineSet
212.902 -401.375 m 1
 142.191 -330.664 l 1
 212.902 -259.953 l 1
 283.613 -330.664 l 1
 212.902 -401.375 l 1
212.9 -221.422 m 1
 142.189 -150.711 l 1
 212.9 -80 l 1
 283.611 -150.711 l 1
 212.9 -221.422 l 1
-130.83 -376.627 m 1
 -130.83 -194.627 l 1
 -102.928 -166.724 l 1
 -272.299 -166.724 l 1
 -283.613 -155.409 l 1
 -227.045 -98.8408 l 1
 78.5195 -98.8408 l 1
 89.834 -110.155 l 1
 33.2656 -166.724 l 1
 -62.9473 -166.724 l 1
 -62.9473 -331.373 l 1
 -119.516 -387.941 l 1
 -130.83 -376.627 l 1
EndSplineSet
EndChar

StartChar: afii57795
Encoding: 1462 1462 70
Width: 0
Flags: W
HStem: -386.211 306.211
AnchorPoint: "DiaToBase2" 0 0 mark 0
LayerCount: 2
Back
SplineSet
0 -400.564 m 5
 -77.7822 -322.782 l 5
 0 -245 l 5
 77.7822 -322.782 l 5
 0 -400.564 l 5
115 -225.564 m 1
 37.2178 -147.782 l 1
 115 -70 l 1
 192.782 -147.782 l 1
 115 -225.564 l 1
-115 -225.564 m 1
 -192.782 -147.782 l 1
 -115 -70 l 1
 -37.2178 -147.782 l 1
 -115 -225.564 l 1
EndSplineSet
Fore
SplineSet
0 -386.211 m 5
 -70.7109 -315.5 l 5
 0 -244.789 l 5
 70.7109 -315.5 l 5
 0 -386.211 l 5
-104.789 -221.422 m 1
 -175.5 -150.711 l 1
 -104.789 -80 l 1
 -34.0781 -150.711 l 1
 -104.789 -221.422 l 1
104.789 -221.422 m 1
 34.0781 -150.711 l 1
 104.789 -80 l 1
 175.5 -150.711 l 1
 104.789 -221.422 l 1
EndSplineSet
EndChar

StartChar: afii57798
Encoding: 1463 1463 71
Width: 0
Flags: HW
HStem: -166.724 67.8832<-170.155 170.155>
AnchorPoint: "DiaToBase2" 0 0 mark 0
LayerCount: 2
Back
SplineSet
-192.782 -147.782 m 29
 192.782 -147.782 l 29
EndSplineSet
Fore
SplineSet
140.155 -166.724 m 5
 -185.409 -166.724 l 1
 -196.724 -155.409 l 1
 -140.155 -98.8408 l 1
 185.409 -98.8408 l 5
 196.724 -110.155 l 5
 140.155 -166.724 l 5
EndSplineSet
EndChar

StartChar: afii57797
Encoding: 1464 1464 72
Width: 0
Flags: W
HStem: -166.724 67.8832<-140.155 -6.03809 33.9414 140.155>
VStem: -33.9414 67.8828<-291.373 -194.627>
AnchorPoint: "DiaToBase2" 0 0 mark 0
LayerCount: 2
Fore
SplineSet
-33.9414 -336.627 m 1
 -33.9414 -194.627 l 1
 -6.03809 -166.724 l 1
 -185.409 -166.724 l 1
 -196.724 -155.409 l 1
 -140.155 -98.8408 l 1
 185.409 -98.8408 l 5
 196.724 -110.155 l 5
 140.155 -166.724 l 5
 33.9414 -166.724 l 1
 33.9414 -291.373 l 1
 -22.627 -347.941 l 1
 -33.9414 -336.627 l 1
EndSplineSet
EndChar

StartChar: afii57796
Encoding: 1467 1467 73
Width: 0
Flags: HW
HStem: -396.421 316.421
AnchorPoint: "DiaToBaseU" 0 0 mark 0
LayerCount: 2
Fore
SplineSet
0 -308.922 m 1
 -70.7109 -238.211 l 1
 0 -167.5 l 1
 70.7109 -238.211 l 1
 0 -308.922 l 1
157.5 -396.421 m 1
 86.7891 -325.71 l 1
 157.5 -254.999 l 1
 228.211 -325.71 l 1
 157.5 -396.421 l 1
-157.5 -221.422 m 1
 -228.211 -150.711 l 1
 -157.5 -80 l 1
 -86.7891 -150.711 l 1
 -157.5 -221.422 l 1
EndSplineSet
EndChar

StartChar: afii57636
Encoding: 8362 8362 74
Width: 1104
Flags: W
HStem: -42.4268 84.8526<558.444 755.964> 557.574 84.853<323.126 529.034>
VStem: 130 84.853<28.2842 444.716> 384.982 84.853<96.974 377.716> 670 84.854<247.356 424.35> 929.301 84.849<219.626 436.409>
LayerCount: 2
Back
SplineSet
107 473 m 21
 107 0 l 13
107 520.658 m 5
 183.46 574.514 288.49 601.235 376.52 600 c 4
 559.641 600 647 465.6 647 360 c 4
 647 295.405 636.021 244.173 618.839 200 c 4
361.981 406 m 21
 361.981 81 l 5
 429.44 24 502.979 0 602.011 0 c 4
 808.022 0 906.301 168 906.301 300 c 4
 906.301 434 872.281 522 828.812 600 c 4
EndSplineSet
Fore
SplineSet
200.711 515.427 m 1
 214.854 501.284 l 1
 214.853 28.2842 l 1
 144.143 -42.4268 l 1
 130 -28.2842 l 1
 130 444.716 l 1
 200.711 515.427 l 1
130 492.374 m 1
 200.711 563.085 l 1
 277.175 616.945 382.197 643.656 470.23 642.427 c 0
 559.132 642.424 625.475 610.754 670.19 566.065 c 0
 684.484 551.771 l 0
 685.049 551.207 684.363 551.894 684.363 551.894 c 1
 684.786 551.47 l 0
 731.877 504.177 754.852 442.44 754.854 388.284 c 0
 754.855 323.691 743.873 272.456 726.692 228.284 c 1
 655.981 157.574 l 1
 641.84 171.716 l 1
 659.021 215.888 670.003 267.123 670 331.716 c 0
 669.999 383.355 649.265 441.605 606.486 488.062 c 1
 562.279 528.794 497.867 557.571 413.662 557.574 c 0
 325.628 558.803 220.606 532.092 144.143 478.231 c 1
 130 492.374 l 1
455.692 448.427 m 1
 469.835 434.284 l 1
 469.835 112.03 l 1
 533.698 63.0811 603.496 42.4229 695.722 42.4258 c 0
 767.538 42.4287 826.486 63.0596 872.08 94.8828 c 1
 910.668 149.668 929.299 214.001 929.301 271.716 c 0
 929.306 405.719 895.282 493.716 851.812 571.716 c 1
 922.522 642.427 l 1
 936.665 628.284 l 1
 980.135 550.285 1014.16 462.288 1014.15 328.284 c 0
 1014.15 256.113 984.777 173.182 924.473 112.829 c 0
 853.762 42.1191 l 0
 803.768 -7.91406 732.532 -42.4238 639.154 -42.4268 c 0
 540.118 -42.4297 466.586 -18.4229 399.124 38.5732 c 1
 384.982 52.7158 l 1
 384.981 377.716 l 1
 455.692 448.427 l 1
EndSplineSet
EndChar

StartChar: dong
Encoding: 8363 8363 75
Width: 1000
LayerCount: 2
Back
SplineSet
506 235 m 29
 39 235 l 29
100 365 m 29
 567 365 l 29
674.816 87 m 4
 615.167 33.2285 533.076 0 442.5 0 c 4
 260.341 0 112.5 134.4 112.5 300 c 4
 112.5 465.6 260.341 600 442.5 600 c 4
 528.746 600 607.3 569.871 666.11 520.568 c 4
EndSplineSet
EndChar

StartChar: Euro
Encoding: 8364 8364 76
Width: 899
Flags: W
HStem: -42.4268 84.8536<432.735 622.591> 201.059 67.882<146.627 155.087 271.02 568.373> 331.059 67.882<249.145 629.373> 557.573 84.854<431.807 621.983>
VStem: 155.073 84.854<268.941 330.832>
LayerCount: 2
Back
SplineSet
546 235 m 29
 79 235 l 29
140 365 m 29
 607 365 l 29
714.816 87 m 4
 655.167 33.2285 573.076 0 482.5 0 c 4
 300.341 0 152.5 134.4 152.5 300 c 4
 152.5 465.6 300.341 600 482.5 600 c 4
 568.746 600 647.3 569.871 706.11 520.568 c 4
EndSplineSet
Fore
SplineSet
555.784 42.4268 m 0
 646.36 42.4268 728.451 75.6553 788.101 129.427 c 1
 802.243 115.284 l 1
 731.532 44.5732 l 1
 671.883 -9.19824 589.792 -42.4268 499.216 -42.4268 c 0
 402.453 -42.4268 315.374 -4.50293 254.994 55.877 c 2
 240.852 70.0195 l 2
 204.269 106.603 177.486 151.43 164.291 201.059 c 1
 101.373 201.059 l 1
 90.0586 212.373 l 1
 146.627 268.941 l 1
 155.087 268.941 l 2
 155.078 269.865 155.073 270.79 155.073 271.716 c 0
 155.073 292.271 157.351 312.346 161.689 331.742 c 1
 151.059 342.373 l 1
 170.094 361.408 l 1
 184.589 403.477 209.007 441.567 240.852 473.412 c 2
 311.562 544.123 l 2
 371.942 604.503 459.021 642.427 555.784 642.427 c 0
 642.03 642.427 720.584 612.298 779.395 562.995 c 1
 793.537 548.854 l 1
 722.826 478.142 l 1
 664.016 527.444 585.462 557.573 499.216 557.573 c 0
 421.424 557.573 349.891 533.062 293.458 492.077 c 1
 273.241 463.945 258.079 432.544 249.145 398.941 c 1
 674.627 398.941 l 1
 685.941 387.627 l 1
 629.373 331.059 l 1
 239.94 331.059 l 2
 239.932 330.135 239.927 329.21 239.927 328.284 c 0
 239.927 307.971 242.151 288.126 246.392 268.941 c 1
 613.627 268.941 l 1
 624.941 257.627 l 1
 568.373 201.059 l 1
 271.02 201.059 l 1
 283.619 176.654 299.729 154.042 318.758 133.76 c 1
 378.759 77.4463 462.801 42.4268 555.784 42.4268 c 0
EndSplineSet
EndChar

StartChar: uni05EB
Encoding: 1515 1515 77
Width: 1000
Flags: H
LayerCount: 2
Back
SplineSet
73.0449 496 m 5
 136 563 219.177 600 310.312 600 c 4
 378.133 600 443 584 495.495 557.033 c 4
 568.322 519.62 620 439 618.5 343.5 c 4
 617.758 296.28 614.244 249.014 620.8 192 c 4
 624.392 160.763 631.754 137.626 641.565 117 c 5
 642 117 545 20 545 20 c 29
 131 20 l 29
73.0449 441 m 29
 73.0449 0 l 29
73.0449 441 m 29
 73.0449 0 l 29
EndSplineSet
EndChar

StartChar: uni05EC
Encoding: 1516 1516 78
Width: 1000
Flags: H
LayerCount: 2
Back
SplineSet
65 20 m 29
 356 20 l 29
99.2002 555 m 4
 138.801 586.5 168.5 600 229 600 c 4
 313.7 600 368.7 555 376.4 496.5 c 4
 391.426 382.35 368.8 306.8 382 192 c 4
 386.667 151.411 398 123 415 93.7002 c 4
EndSplineSet
EndChar

StartChar: uni05ED
Encoding: 1517 1517 79
Width: 1000
Flags: H
LayerCount: 2
Back
SplineSet
42 538 m 5
 120 585 212 600 311.312 600 c 4
 379.133 600 444 584 496.495 557.033 c 4
 569.322 519.62 621 439 619.5 343.5 c 4
 618.758 296.28 615.244 249.014 621.8 192 c 4
 625.392 160.763 632.754 137.626 642.565 117 c 5
 643 117 546 20 546 20 c 29
 132 20 l 29
74.0449 494 m 29
 74.0449 0 l 29
EndSplineSet
EndChar

StartChar: afii57806
Encoding: 1465 1465 80
Width: 0
Flags: W
HStem: 614.999 141.422
VStem: -70.7119 141.422
AnchorPoint: "DiaToBaseO" 0 0 mark 0
LayerCount: 2
Fore
SplineSet
-0.000976562 614.999 m 5
 -70.7119 685.71 l 5
 -0.000976562 756.421 l 5
 70.71 685.71 l 5
 -0.000976562 614.999 l 5
EndSplineSet
EndChar

StartChar: uni05BA
Encoding: 1466 1466 81
Width: 0
Flags: HW
HStem: -196.422 141.422
VStem: -70.7109 141.422
LayerCount: 2
Fore
SplineSet
-0.000976562 614.999 m 5
 -70.7119 685.71 l 5
 -0.000976562 756.421 l 5
 70.71 685.71 l 5
 -0.000976562 614.999 l 5
EndSplineSet
EndChar

StartChar: afii57807
Encoding: 1468 1468 82
Width: 0
Flags: W
HStem: 222.218 155.564
VStem: -77.7832 155.564
AnchorPoint: "DiaToBaseD" 0 0 mark 0
LayerCount: 2
Fore
SplineSet
-0.000976562 222.218 m 5
 -77.7832 300 l 5
 -0.000976562 377.782 l 5
 77.7812 300 l 5
 -0.000976562 222.218 l 5
EndSplineSet
EndChar

StartChar: afii57839
Encoding: 1469 1469 83
Width: 0
Flags: HW
HStem: -156.724 67.8832<-170.155 -6.03809 33.9414 170.155>
VStem: -33.9414 67.8828<-281.373 -184.627>
LayerCount: 2
Back
SplineSet
-0.0400391 -304.06 m 5
 -0.0400391 -104.06 l 5
EndSplineSet
Fore
SplineSet
-22.668 -338.001 m 1
 -33.9814 -326.688 l 1
 -33.9814 -126.687 l 1
 22.5879 -70.1182 l 1
 33.9014 -81.4316 l 1
 33.9004 -281.433 l 1
 -22.668 -338.001 l 1
EndSplineSet
EndChar

StartChar: afii57645
Encoding: 1470 1470 84
Width: 573
Flags: W
HStem: 547.573 84.8535<146.164 427.836>
LayerCount: 2
Back
SplineSet
122.88 600 m 21
 236 584.32 341.279 584.32 461.12 600 c 13
EndSplineSet
Fore
SplineSet
75.4531 561.716 m 1
 146.164 632.427 l 1
 259.281 616.744 364.562 616.746 484.404 632.427 c 1
 498.547 618.284 l 1
 427.836 547.573 l 1
 307.994 531.893 202.713 531.891 89.5957 547.573 c 1
 75.4531 561.716 l 1
EndSplineSet
EndChar

StartChar: afii57841
Encoding: 1471 1471 85
Width: 0
VWidth: 1817
Flags: W
HStem: 706.057 67.882<-140.155 140.155>
LayerCount: 2
Back
SplineSet
-192.782 739.998 m 29
 192.782 739.998 l 29
EndSplineSet
Fore
SplineSet
-196.724 717.37 m 1
 -140.155 773.939 l 1
 185.41 773.939 l 5
 196.724 762.626 l 5
 140.155 706.058 l 5
 -185.41 706.057 l 1
 -196.724 717.37 l 1
EndSplineSet
EndChar

StartChar: afii57842
Encoding: 1472 1472 86
Width: 230
Flags: HW
VStem: 81.0596 67.8818<-281.432 877.373>
LayerCount: 2
Back
SplineSet
120 -304.06 m 9
 120 900 l 1
EndSplineSet
Fore
SplineSet
92.373 -338 m 1
 81.0596 -326.688 l 1
 81.0586 877.373 l 1
 137.628 933.941 l 1
 148.941 922.628 l 1
 148.941 -281.432 l 1
 92.373 -338 l 1
EndSplineSet
EndChar

StartChar: afii57804
Encoding: 1473 1473 87
Width: 0
Flags: HW
HStem: 614.999 141.423
VStem: 676.574 141.423
LayerCount: 2
Back
SplineSet
465.784 648.427 m 5
 479.927 634.284 l 5
 551.936 504.295 555.923 348.279 479.927 228.284 c 5
 409.216 157.574 l 5
 395.074 171.716 l 5
 471.07 291.711 467.083 447.727 395.072 577.716 c 5
 465.784 648.427 l 5
847.288 648.426 m 5
 861.43 634.284 l 5
 894.824 576.626 913.924 506.665 913.926 435.284 c 4
 913.93 326.359 869.421 226.997 797.618 155.181 c 4
 726.908 84.4697 l 4
 726.649 84.2119 l 5
 655.691 13.4121 558.498 -30.4297 451.216 -30.4268 c 4
 343.795 -30.4238 246.418 13.5967 175.588 84.4062 c 4
 160.99 99.0049 l 4
 89.4121 170.79 45.0771 269.988 45.0742 378.716 c 4
 45.0713 450.098 64.1855 520.047 97.5693 577.716 c 5
 168.28 648.426 l 5
 182.423 634.284 l 5
 149.04 576.616 129.925 506.666 129.927 435.284 c 4
 129.93 329.896 171.509 233.584 239.278 162.313 c 5
 309.386 95.6904 403.946 54.4297 507.784 54.4258 c 4
 597.314 54.4229 679.869 85.0068 745.892 136.188 c 5
 797.766 203.071 829.076 287.601 829.073 378.716 c 4
 829.071 450.098 809.957 520.043 776.577 577.716 c 5
 847.288 648.426 l 5
EndSplineSet
Fore
SplineSet
737.285 614.999 m 5
 666.574 685.71 l 5
 737.285 756.422 l 5
 807.997 685.71 l 5
 737.285 614.999 l 5
EndSplineSet
EndChar

StartChar: afii57803
Encoding: 1474 1474 88
Width: 0
Flags: HW
HStem: -196.422 141.422
VStem: 203.864 141.422
LayerCount: 2
Back
SplineSet
465.784 648.427 m 5
 479.927 634.284 l 5
 551.936 504.295 555.923 348.279 479.927 228.284 c 5
 409.216 157.574 l 5
 395.074 171.716 l 5
 471.07 291.711 467.083 447.727 395.072 577.716 c 5
 465.784 648.427 l 5
847.288 648.426 m 5
 861.43 634.284 l 5
 894.824 576.626 913.924 506.665 913.926 435.284 c 4
 913.93 326.359 869.421 226.997 797.618 155.181 c 4
 726.908 84.4697 l 4
 726.649 84.2119 l 5
 655.691 13.4121 558.498 -30.4297 451.216 -30.4268 c 4
 343.795 -30.4238 246.418 13.5967 175.588 84.4062 c 4
 160.99 99.0049 l 4
 89.4121 170.79 45.0771 269.988 45.0742 378.716 c 4
 45.0713 450.098 64.1855 520.047 97.5693 577.716 c 5
 168.28 648.426 l 5
 182.423 634.284 l 5
 149.04 576.616 129.925 506.666 129.927 435.284 c 4
 129.93 329.896 171.509 233.584 239.278 162.313 c 5
 309.386 95.6904 403.946 54.4297 507.784 54.4258 c 4
 597.314 54.4229 679.869 85.0068 745.892 136.188 c 5
 797.766 203.071 829.076 287.601 829.073 378.716 c 4
 829.071 450.098 809.957 520.043 776.577 577.716 c 5
 847.288 648.426 l 5
EndSplineSet
Fore
SplineSet
264.573 614.999 m 5
 193.862 685.71 l 5
 264.573 756.422 l 5
 335.285 685.71 l 5
 264.573 614.999 l 5
EndSplineSet
EndChar

StartChar: uni05C4
Encoding: 1476 1476 90
Width: 0
Flags: HW
HStem: -196.422 141.422
VStem: -70.7109 141.422
LayerCount: 2
Fore
SplineSet
-0.000976562 614.999 m 5
 -70.7119 685.71 l 5
 -0.000976562 756.421 l 5
 70.71 685.71 l 5
 -0.000976562 614.999 l 5
EndSplineSet
EndChar

StartChar: uni05C5
Encoding: 1477 1477 91
Width: 0
Flags: HW
HStem: 614.999 141.422
VStem: -70.7119 141.422
LayerCount: 2
Fore
SplineSet
-0.000976562 614.999 m 5
 -70.7119 685.71 l 5
 -0.000976562 756.421 l 5
 70.71 685.71 l 5
 -0.000976562 614.999 l 5
EndSplineSet
EndChar

StartChar: uni05C7
Encoding: 1479 1479 92
Width: 0
Flags: HW
HStem: -166.724 67.8832<-150.155 -6.03809 33.9424 150.155>
VStem: -33.9404 67.8828<-331.373 -194.627>
AnchorPoint: "DiaToBase2" 0 0 mark 0
LayerCount: 2
Fore
SplineSet
-33.9404 -396.627 m 1
 -33.9404 -194.627 l 1
 -6.03809 -166.724 l 1
 -165.409 -166.724 l 1
 -176.724 -155.409 l 1
 -120.155 -98.8408 l 1
 165.409 -98.8408 l 5
 176.724 -110.155 l 5
 120.155 -166.724 l 5
 33.9424 -166.724 l 1
 33.9424 -351.373 l 1
 -22.627 -407.941 l 1
 -33.9404 -396.627 l 1
EndSplineSet
EndChar

StartChar: endash
Encoding: 8211 8211 102
Width: 761
Flags: HW
LayerCount: 2
Back
SplineSet
697.711 342.427 m 5
 711.854 328.284 l 5
 641.143 257.573 l 1
 74.1426 257.573 l 1
 60 271.716 l 1
 130.711 342.427 l 5
 697.711 342.427 l 5
EndSplineSet
Fore
SplineSet
687.711 337.427 m 1
 701.854 323.284 l 1
 641.143 262.573 l 1
 74.1426 262.573 l 1
 60 276.716 l 1
 120.711 337.427 l 1
 687.711 337.427 l 1
EndSplineSet
EndChar

StartChar: emdash
Encoding: 8212 8212 103
Width: 1061
Flags: HW
LayerCount: 2
Fore
SplineSet
987.711 337.427 m 5
 1001.85 323.284 l 5
 941.143 262.573 l 1
 74.1426 262.573 l 1
 60 276.716 l 1
 120.711 337.427 l 5
 987.711 337.427 l 5
EndSplineSet
EndChar

StartChar: afii00208
Encoding: 8213 8213 104
Width: 1384
Flags: HW
LayerCount: 2
Fore
SplineSet
1310.71 337.427 m 5
 1324.85 323.284 l 5
 1264.14 262.573 l 1
 64.1426 262.573 l 1
 50 276.716 l 1
 110.711 337.427 l 5
 1310.71 337.427 l 5
EndSplineSet
EndChar

StartChar: minus
Encoding: 8722 8722 112
Width: 849
Flags: HW
LayerCount: 2
Back
SplineSet
735.711 252.427 m 1
 749.854 238.284 l 1
 679.143 167.573 l 1
 114.143 167.573 l 1
 100 181.716 l 1
 170.711 252.427 l 1
 735.711 252.427 l 1
114.143 347.573 m 1
 100 361.716 l 1
 170.711 432.427 l 1
 735.711 432.427 l 1
 749.854 418.284 l 1
 679.143 347.573 l 1
 114.143 347.573 l 1
EndSplineSet
Fore
SplineSet
730.711 348.306 m 5
 744.854 334.163 l 5
 674.143 263.452 l 5
 109.143 263.452 l 5
 95 277.595 l 5
 165.711 348.306 l 5
 730.711 348.306 l 5
EndSplineSet
EndChar

StartChar: uniFB29
Encoding: 64297 64297 113
Width: 848
Flags: HW
LayerCount: 2
Back
SplineSet
114.141 257.578 m 5
 100 271.719 l 5
 170.703 342.422 l 5
 382 342.422 l 5
 382 521.719 l 1
 452.703 592.422 l 1
 466.844 578.281 l 1
 466.844 342.422 l 5
 734.703 342.422 l 5
 748.844 328.281 l 5
 678.141 257.578 l 5
 490.141 257.578 302.141 257.578 114.141 257.578 c 5
EndSplineSet
Fore
SplineSet
109.141 217.156 m 1
 95 231.297 l 1
 165.703 302 l 1
 377 302 l 1
 377 521.719 l 1
 447.703 592.422 l 1
 461.844 578.281 l 1
 461.844 302 l 1
 729.703 302 l 1
 743.844 287.859 l 1
 673.141 217.156 l 1
 485.141 217.156 297.141 217.156 109.141 217.156 c 1
EndSplineSet
EndChar

StartChar: SF110000
Encoding: 9474 9474 114
Width: 270
VWidth: 940
Flags: HW
LayerCount: 2
Fore
SplineSet
170 -274 m 2
 170 -285 168 -290 164 -294 c 0
 160 -298 155 -300 144 -300 c 2
 126 -300 l 2
 115 -300 110 -298 106 -294 c 0
 102 -290 100 -285 100 -274 c 2
 100 874 l 2
 100 885 102 890 106 894 c 0
 110 898 115 900 126 900 c 2
 144 900 l 2
 155 900 160 898 164 894 c 0
 168 890 170 885 170 874 c 2
 170 -274 l 2
EndSplineSet
EndChar

StartChar: uni25CC
Encoding: 9676 9676 115
Width: 615
Flags: HW
LayerCount: 2
Fore
SplineSet
76.8984 232.913 m 0
 92.3281 232.913 104.853 220.39 104.853 204.96 c 0
 104.853 189.529 92.3281 177.007 76.8984 177.007 c 0
 61.4678 177.007 48.9453 189.529 48.9453 204.96 c 0
 48.9453 220.39 61.4678 232.913 76.8984 232.913 c 0
211.383 98.4277 m 0
 226.814 98.4277 239.336 85.9043 239.336 70.4746 c 0
 239.336 55.0439 226.814 42.5215 211.383 42.5215 c 0
 195.954 42.5215 183.43 55.0439 183.43 70.4746 c 0
 183.43 85.9043 195.954 98.4277 211.383 98.4277 c 0
401.463 98.4277 m 0
 416.893 98.4277 429.416 85.9043 429.416 70.4746 c 0
 429.416 55.0439 416.893 42.5215 401.463 42.5215 c 0
 386.032 42.5215 373.511 55.0439 373.511 70.4746 c 0
 373.511 85.9043 386.032 98.4277 401.463 98.4277 c 0
535.948 232.913 m 0
 551.378 232.913 563.901 220.39 563.901 204.96 c 0
 563.901 189.529 551.378 177.007 535.948 177.007 c 0
 520.519 177.007 507.994 189.529 507.994 204.96 c 0
 507.994 220.39 520.519 232.913 535.948 232.913 c 0
535.948 422.993 m 0
 551.378 422.993 563.901 410.47 563.901 395.039 c 0
 563.901 379.609 551.378 367.086 535.948 367.086 c 0
 520.519 367.086 507.994 379.609 507.994 395.039 c 0
 507.994 410.47 520.519 422.993 535.948 422.993 c 0
401.463 557.477 m 0
 416.893 557.477 429.416 544.955 429.416 529.525 c 0
 429.416 514.095 416.893 501.571 401.463 501.571 c 0
 386.032 501.571 373.511 514.095 373.511 529.525 c 0
 373.511 544.955 386.032 557.477 401.463 557.477 c 0
211.383 557.477 m 0
 226.814 557.477 239.336 544.955 239.336 529.525 c 0
 239.336 514.095 226.814 501.571 211.383 501.571 c 0
 195.954 501.571 183.43 514.095 183.43 529.525 c 0
 183.43 544.955 195.954 557.477 211.383 557.477 c 0
76.8984 422.993 m 0
 92.3281 422.993 104.853 410.47 104.853 395.039 c 0
 104.853 379.609 92.3281 367.086 76.8984 367.086 c 0
 61.4678 367.086 48.9453 379.609 48.9453 395.039 c 0
 48.9453 410.47 61.4678 422.993 76.8984 422.993 c 0
57.9521 327.953 m 0
 73.3828 327.953 85.9053 315.429 85.9053 300 c 0
 85.9053 284.57 73.3828 272.046 57.9521 272.046 c 0
 42.5225 272.046 30 284.57 30 300 c 0
 30 315.429 42.5225 327.953 57.9521 327.953 c 0
130.733 503.642 m 0
 146.164 503.642 158.687 491.119 158.687 475.688 c 0
 158.687 460.259 146.164 447.735 130.733 447.735 c 0
 115.304 447.735 102.781 460.259 102.781 475.688 c 0
 102.781 491.119 115.304 503.642 130.733 503.642 c 0
130.733 152.264 m 0
 146.164 152.264 158.687 139.74 158.687 124.311 c 0
 158.687 108.88 146.164 96.3574 130.733 96.3574 c 0
 115.304 96.3574 102.781 108.88 102.781 124.311 c 0
 102.781 139.74 115.304 152.264 130.733 152.264 c 0
482.113 152.264 m 0
 497.543 152.264 510.065 139.74 510.065 124.311 c 0
 510.065 108.88 497.543 96.3574 482.113 96.3574 c 0
 466.682 96.3574 454.16 108.88 454.16 124.311 c 0
 454.16 139.74 466.682 152.264 482.113 152.264 c 0
482.113 503.642 m 0
 497.543 503.642 510.065 491.119 510.065 475.688 c 0
 510.065 460.259 497.543 447.735 482.113 447.735 c 0
 466.682 447.735 454.16 460.259 454.16 475.688 c 0
 454.16 491.119 466.682 503.642 482.113 503.642 c 0
306.423 576.424 m 0
 321.853 576.424 334.376 563.9 334.376 548.471 c 0
 334.376 533.04 321.853 520.518 306.423 520.518 c 0
 290.992 520.518 278.471 533.04 278.471 548.471 c 0
 278.471 563.9 290.992 576.424 306.423 576.424 c 0
306.423 79.4805 m 0
 321.853 79.4805 334.376 66.959 334.376 51.5283 c 0
 334.376 36.0986 321.853 23.5762 306.423 23.5762 c 0
 290.992 23.5762 278.471 36.0986 278.471 51.5283 c 0
 278.471 66.959 290.992 79.4805 306.423 79.4805 c 0
554.895 327.953 m 0
 570.325 327.953 582.847 315.429 582.847 300 c 0
 582.847 284.57 570.325 272.046 554.895 272.046 c 0
 539.465 272.046 526.94 284.57 526.94 300 c 0
 526.94 315.429 539.465 327.953 554.895 327.953 c 0
EndSplineSet
EndChar

StartChar: uniFB4F
Encoding: 64335 64335 160
Width: 747
Flags: HW
LayerCount: 2
Back
SplineSet
52.5742 577.716 m 1
 117.284 642.426 l 1
 556.731 202.98 l 1
 599.368 247.724 640.955 315.45 648.573 392.716 c 0
 655.573 463.715 639.577 515.72 612.573 566.716 c 1
 688.284 642.426 l 1
 702.426 628.284 l 1
 729.43 577.288 740.426 520.283 733.427 449.284 c 0
 725.502 368.904 684.115 301.946 639.134 256.964 c 2
 570.941 188.77 l 1
 737.427 22.2842 l 1
 672.716 -42.4268 l 1
 233.782 396.507 l 1
 191.338 351.782 150.016 284.257 142.427 207.284 c 0
 135.427 136.285 151.425 84.2832 178.427 33.2842 c 1
 102.716 -42.4268 l 1
 88.5732 -28.2842 l 1
 61.5742 22.7158 50.5742 79.7158 57.5742 150.716 c 0
 65.498 231.096 106.884 298.055 151.865 343.036 c 2
 219.559 410.73 l 1
 52.5742 577.716 l 1
EndSplineSet
Fore
SplineSet
141.334 568 m 1
 141.3 829.284 l 1
 127.159 843.426 l 1
 56.4482 772.716 l 1
 56.4844 523.716 l 1
 245.226 334.999 433.973 146.288 622.716 -42.4268 c 1
 687.427 22.2842 l 1
 520.941 188.77 l 1
 589.134 256.964 l 2
 634.115 301.946 675.502 368.904 683.427 449.284 c 0
 690.426 520.283 679.43 577.288 652.426 628.284 c 1
 638.284 642.426 l 1
 562.573 566.716 l 1
 589.577 515.72 605.573 463.715 598.573 392.716 c 0
 590.955 315.45 549.368 247.724 506.731 202.98 c 1
 141.334 568 l 1
EndSplineSet
LCarets2: 1 0 
Ligature2: "AlephLamed2" afii57664 afii57676
Ligature2: "AlephLamed" afii57664 afii57676
EndChar

StartChar: uniFB1E
Encoding: 64286 64286 161
Width: 0
VWidth: 1817
Flags: HW
HStem: 655.283 57.4336<-126.515 -62.1058 49.4834 153.264>
LayerCount: 2
Back
SplineSet
-154.065 684 m 1
 -47 650 72 656 177.5 690.5 c 1
-196.724 647.37 m 5
 -140.155 703.939 l 5
 185.41 703.939 l 5
 196.724 692.626 l 5
 140.155 636.058 l 5
 -185.41 636.057 l 5
 -196.724 647.37 l 5
EndSplineSet
Fore
SplineSet
-181.616 655.283 m 1
 -126.515 712.717 l 1
 -19.999 678.889 98.5732 685.15 201.736 718.888 c 1
 153.264 662.112 l 1
 45.4258 626.848 -74.0068 621.107 -181.616 655.283 c 1
EndSplineSet
EndChar
